<?xml version="1.0" encoding="utf-8"?>
<!-- Generator: Adobe Illustrator 16.0.0, SVG Export Plug-In . SVG Version: 6.00 Build 0)  -->
<!DOCTYPE svg PUBLIC "-//W3C//DTD SVG 1.1//EN" "http://www.w3.org/Graphics/SVG/1.1/DTD/svg11.dtd">
<svg version="1.1" id="Layer_1" xmlns="http://www.w3.org/2000/svg" xmlns:xlink="http://www.w3.org/1999/xlink" x="0px" y="0px"
	 width="298px" height="345.098px" viewBox="0 0 298 345.098" enable-background="new 0 0 298 345.098" xml:space="preserve">
<image display="none" overflow="visible" width="298" height="345" xlink:href="m91vQPyW5lY.jpg"  transform="matrix(1 0 0 1 0 0.0486)">
</image>
<path fill="#DEDEDE" d="M264.568,102.055l5.354-5.355c7.718-7.717,9.124-18.938,3.126-24.935
	c-5.997-5.997-17.217-4.591-24.934,3.127l-5.387,5.385C221.768,63.292,196.109,51.875,168,48.297v-9.583h7.658
	c10.914,0,19.843-8.711,19.843-19.356C195.501,8.711,186.573,0,175.659,0h-53.317C111.429,0,102.5,8.711,102.5,19.357
	c0,10.646,8.929,19.356,19.842,19.356H130v9.583C56.681,57.629,0,120.244,0,196.097c0,82.291,66.709,149,149,149
	c82.29,0,149-66.709,149-149C298,160.434,285.465,127.703,264.568,102.055z M149,306.264c-60.844,0-110.167-49.323-110.167-110.167
	C38.833,135.253,88.156,85.93,149,85.93c60.843,0,110.167,49.322,110.167,110.167C259.167,256.941,209.843,306.264,149,306.264z"/>
<path fill="#D22856" d="M148,69.048c-69.864,0-126.5,56.637-126.5,126.5c0,69.864,56.636,126.5,126.5,126.5
	c69.863,0,126.5-56.636,126.5-126.5C274.5,125.685,217.863,69.048,148,69.048z M148,306.264
	c-60.844,0-110.167-49.323-110.167-110.167C37.833,135.253,87.156,85.93,148,85.93c60.843,0,110.167,49.322,110.167,110.167
	C258.167,256.941,208.843,306.264,148,306.264z"/>
<path fill="#D22856" d="M143.59,234.887H83.513v-12.509l21.575-21.577c6.391-6.464,10.559-10.951,12.518-13.462
	c1.978-2.485,3.372-4.818,4.233-6.947c0.862-2.129,1.293-4.335,1.293-6.618c0-3.397-0.939-5.956-2.84-7.606
	c-1.902-1.646-4.438-2.483-7.607-2.483c-3.32,0-6.566,0.761-9.683,2.283c-3.12,1.521-6.39,3.675-9.812,6.465l-9.864-11.587
	c4.234-3.551,7.76-6.086,10.523-7.554c2.788-1.471,5.831-2.612,9.126-3.4c3.297-0.784,6.972-1.19,11.054-1.19
	c5.375,0,10.117,0.988,14.224,2.916c4.133,1.952,7.327,4.666,9.582,8.139c2.259,3.474,3.425,7.504,3.425,11.991
	c0,3.929-0.687,7.606-2.08,11.03c-1.394,3.421-3.55,6.944-6.464,10.572c-2.917,3.625-8.062,8.747-15.416,15.438l-11.028,10.293
	v0.813h37.341v15.136L143.59,234.887z M214.245,217.255h-10.344v17.63h-17.755v-17.628h-36.684v-12.498l37.681-54.917h16.733v53.47
	h10.346v13.969L214.245,217.255z M186.146,203.295v-14.428c0-2.406,0.094-5.897,0.292-10.476c0.201-4.577,0.356-7.233,0.482-7.972
	h-0.456c-1.444,3.182-3.196,6.285-5.225,9.31l-15.743,23.554h20.688L186.146,203.295z"/>
</svg>
