<svg version="1.1" id="Layer_1" xmlns="http://www.w3.org/2000/svg" xmlns:xlink="http://www.w3.org/1999/xlink" x="0px" y="0px" width="298px" height="345.097px" viewBox="0 0 298 345.097" enable-background="new 0 0 298 345.097" xml:space="preserve">
  <path fill ="#dedede" d="M264.568,102.055l5.355-5.355c7.717-7.717,9.124-18.938,3.126-24.935c-5.997-5.997-17.217-4.59-24.934,3.127l-5.386,5.385 C221.768,63.292,196.11,51.875,168,48.297v-9.583h7.658c10.914,0,19.843-8.711,19.843-19.357S186.573,0,175.659,0h-53.317  c-10.913,0-19.842,8.711-19.842,19.357s8.929,19.357,19.842,19.357H130v9.583C56.681,57.629,0,120.244,0,196.097  c0,82.291,66.709,149,149,149c82.29,0,149-66.709,149-149C298,160.434,285.465,127.703,264.568,102.055z M149,306.264 c-60.844,0-110.167-49.323-110.167-110.167S88.156,85.93,149,85.93c60.843,0,110.167,49.323,110.167,110.167  S209.843,306.264,149,306.264z"/>
  <path fill="#d22856" d="M149,69.048c-69.864,0-126.5,56.636-126.5,126.5c0,69.864,56.636,126.5,126.5,126.5 s126.5-56.636,126.5-126.5C275.5,125.685,218.864,69.048,149,69.048z M149,306.264c-60.844,0-110.167-49.323-110.167-110.167 C38.833,135.253,88.156,85.93,149,85.93c60.843,0,110.167,49.323,110.167,110.167C259.167,256.941,209.843,306.264,149,306.264z"/>
  <path fill="#D22856" d="M956.99 459.895h-23.696v-4.934l8.51-8.51c2.52-2.55 4.165-4.32 4.937-5.31.78-.98 1.33-1.9 1.67-2.74.34-.84.51-1.71.51-2.61 0-1.34-.37-2.35-1.12-3-.75-.65-1.75-.98-3-.98-1.31 0-2.59.3-3.82.9-1.23.6-2.52 1.45-3.87 2.55l-3.89-4.57c1.67-1.4 3.06-2.4 4.15-2.98 1.1-.58 2.3-1.03 3.6-1.34 1.3-.31 2.75-.47 4.36-.47 2.12 0 3.99.39 5.61 1.15 1.63.77 2.89 1.84 3.78 3.21s1.35 2.96 1.35 4.73c0 1.55-.27 3-.82 4.35-.55 1.35-1.4 2.74-2.55 4.17s-3.18 3.45-6.08 6.09l-4.35 4.06v.32H957v5.97zm27.868-6.955h-4.08v6.954h-7.003v-6.953h-14.468v-4.93l14.862-21.66h6.6v21.09h4.08v5.51zm-11.083-5.506v-5.69c0-.95.038-2.327.116-4.132.08-1.806.14-2.854.19-3.145h-.18c-.57 1.255-1.26 2.48-2.06 3.672l-6.21 9.29h8.16z"/>
</svg>
