<?xml version="1.0" encoding="utf-8"?>
<!-- Generator: Adobe Illustrator 16.0.0, SVG Export Plug-In . SVG Version: 6.00 Build 0)  -->
<!DOCTYPE svg PUBLIC "-//W3C//DTD SVG 1.1//EN" "http://www.w3.org/Graphics/SVG/1.1/DTD/svg11.dtd">
<svg version="1.1" id="Слой_1" xmlns="http://www.w3.org/2000/svg" xmlns:xlink="http://www.w3.org/1999/xlink" x="0px" y="0px"
	 width="566.93px" height="566.93px" viewBox="0 0 566.93 566.93" enable-background="new 0 0 566.93 566.93" xml:space="preserve">
<g>
	<path fill="#8A8A8A" d="M367.808,221.678c-0.09,23.602-9.735,44.932-25.258,60.336c-15.513,15.396-36.902,24.875-60.489,24.785
		c-19.123-0.072-36.754-6.419-50.951-17.081c7.215,1.229,14.707,0.534,21.585-1.965c8.979,4.021,18.922,6.274,29.393,6.314
		c20.08,0.076,38.292-7.997,51.505-21.11c13.203-13.103,21.407-31.241,21.483-51.307c0.021-5.472-0.565-10.806-1.692-15.937
		c-2.509,4.615-6.075,8.734-10.527,11.852c-14.996,10.5-31.556,11.628-48.423,10.903c0.326-1.121,0.649-2.247,0.974-3.376
		c0.855-2.981,1.729-6.091,2.684-9.235c13.516,0.321,26.486-1.064,37.449-8.74c8.426-5.9,12.598-18.564,6.378-27.446
		c-6.219-8.882-19.546-9.293-27.972-3.393c-15.048,10.537-20.254,28.684-25.459,46.83c-5.839,20.352-11.678,40.705-30.37,53.793
		c-7.242,5.071-16.235,7.028-24.608,5.901c-26.304-3.541-36.655-39.275-36.57-61.75c0.089-23.602,9.735-44.932,25.258-60.337
		c15.513-15.396,36.902-24.874,60.489-24.784c19.104,0.072,36.72,6.407,50.911,17.051c-7.216-1.222-14.684-0.519-21.558,1.989
		c-8.975-4.017-18.915-6.269-29.38-6.309c-20.081-0.076-38.293,7.996-51.506,21.109c-13.203,13.103-21.407,31.241-21.483,51.307
		c-0.021,5.482,0.566,10.825,1.698,15.966c2.51-4.636,6.078-8.769,10.521-11.881c14.994-10.499,31.553-11.626,48.42-10.9
		c-0.326,1.122-0.651,2.248-0.975,3.379c-0.855,2.98-1.728,6.089-2.682,9.232c-13.516-0.322-26.486,1.063-37.446,8.738
		c-8.392,5.876-12.572,18.602-6.378,27.446c6.192,8.845,19.581,9.27,27.972,3.393c15.045-10.534,20.251-28.68,25.456-46.824
		c5.838-20.353,11.678-40.708,30.373-53.798c7.273-5.094,16.249-7.049,24.604-5.925
		C357.526,163.442,367.893,199.219,367.808,221.678L367.808,221.678z"/>
	<path fill="#8A8A8A" d="M129.423,360.682h19.782c1.073,0,1.895,0.204,2.466,0.611c0.571,0.408,0.857,1.166,0.857,2.274
		c0,1.76-1.108,2.641-3.323,2.641h-19.782V360.682L129.423,360.682z M118,345.643c0,7.861,0,15.722,0,23.583
		c0,3.591,1.488,5.442,5.871,5.442h28.657c4.084,0,7.009-0.733,8.774-2.2c1.766-1.468,2.648-3.961,2.648-7.482
		c0-4.075-1.713-6.83-5.14-8.265c1.073-0.457,1.973-1.304,2.7-2.543s1.09-2.771,1.09-4.597c0-4.141-1.211-6.944-3.634-8.411
		c-1.626-0.979-4.223-1.468-7.789-1.468c-9.211,0-18.107,0-27.161,0C120.099,339.703,118.196,341.333,118,345.643L118,345.643z
		 M129.423,348.163h20.249c0.935,0,1.644,0.18,2.129,0.539c0.484,0.357,0.727,0.961,0.727,1.809c0,0.815-0.251,1.41-0.753,1.785
		c-0.502,0.375-1.203,0.563-2.103,0.563h-20.249V348.163L129.423,348.163z"/>
	<path fill="#8A8A8A" d="M172.595,356.969c0.081-8.402,1.892-11.838,4.584-14.593c4.448-4.552,13.587-4.302,19.71-4.299
		c6.296,0.003,15.615-0.398,20.206,4.299c2.716,2.779,4.536,6.249,4.586,14.811h-0.023c-0.08,8.402-1.892,11.838-4.584,14.593
		c-4.406,4.508-13.854,4.48-19.958,4.48c-6.104,0-15.552,0.028-19.958-4.48c-2.716-2.778-4.536-6.249-4.586-14.811H172.595
		L172.595,356.969z M209.912,356.969c0.017-1.988-0.02-4.431-1.146-6.061c-1.77-2.562-5.512-2.724-11.701-2.791
		c-6.103,0.068-9.8,0.249-11.557,2.791c-1.167,1.689-1.164,4.252-1.144,6.278h-0.023c-0.017,1.988,0.02,4.431,1.146,6.061
		c1.756,2.542,5.454,2.829,11.556,3.003c6.189-0.172,9.931-0.441,11.701-3.003c1.167-1.69,1.164-4.252,1.144-6.278H209.912
		L209.912,356.969z"/>
	<path fill="#8A8A8A" d="M259.25,375.832c3.148-0.152,5.867-0.874,7.869-1.543c4.069-1.359,6.409-3.404,7.858-6.953
		c0.622-1.522,0.949-3.684,0.809-6.504h-11.475c-0.327,5.413-7.482,5.135-11.824,5.154c-4.467,0.021-9.996-0.145-10.59-5.365
		c-0.114-1.002-0.166-2.187-0.172-3.552v-0.042c0.006-1.365,0.058-2.55,0.172-3.551c0.594-5.222,6.123-5.386,10.59-5.366
		c4.341,0.02,11.497-0.259,11.824,5.154h11.475c0.14-2.819-0.187-4.981-0.809-6.504c-1.45-3.549-3.789-5.594-7.858-6.953
		c-2.002-0.668-4.721-1.39-7.869-1.542c-9.598-0.466-25.616-1.497-28.142,10.233c-0.464,2.157-0.788,4.497-0.804,8.463h-0.001
		l0,0.087l0,0.086h0.001c0.016,3.966,0.339,6.306,0.804,8.464C233.633,377.328,249.652,376.296,259.25,375.832L259.25,375.832z"/>
	<path fill="#8A8A8A" d="M337.165,339.703h19.47l8.722,19.456c1.757,3.92,0.688,3.18,2.533,0.077l8.954-19.533h18.484v34.917
		h-10.844l0.009-27.477l-10.091,20.785c-2.641,5.477-2.585,6.691-7.995,6.691c-3.921-0.077-4.744-1.229-7.188-5.928l-11.195-21.53
		l-0.016,27.458h-10.844V339.703L337.165,339.703z"/>
	<path fill="#8A8A8A" d="M407.723,374.668v-34.966h11.423v8.559h15.527c9.247,0,13.15,3.255,13.021,13.203
		c-0.13,9.936-4.081,13.204-13.619,13.204H407.723L407.723,374.668z M418.98,357.308l0.165,8.313h15.606
		c2.658,0,3.614-1.397,3.549-4.157c-0.066-2.767-1.218-4.156-3.866-4.156H418.98L418.98,357.308z"/>
	<path fill="#8A8A8A" d="M286.207,368.453c0-7.448,0-14.896,0-22.346c0-4.965,2.493-6.404,6.318-6.404c11.221,0,21.024,0,32.245,0
		c0,2.82,0,5.641,0,8.46c-9.52,0-17.622,0-27.141,0c0,1.614,0,3.229,0,4.842c9.086,0,16.756,0,25.842,0c0,2.804,0,5.607,0,8.411
		c-9.086,0-16.756,0-25.842,0c0,1.598,0,3.195,0,4.793c9.519,0,17.621,0,27.141,0c0,2.82,0,5.64,0,8.46c-11.294,0-21.171,0-32.464,0
		C288.162,374.668,286.207,372.719,286.207,368.453L286.207,368.453z"/>
	<path fill="#8A8A8A" d="M128,396.797h27.435c7.081,0.231,9.918,5.676,10,11.671c0,7.75,0,15.499,0,23.248h-11.422v-20.155
		c0-4.815-1.441-5.763-5.637-5.763c-4.438,0-8.876,0-13.314,0c-4.196,0-5.637,0.947-5.637,5.763v20.155H118
		c0-7.749,0-15.498,0-23.248C118.082,402.473,120.919,397.029,128,396.797L128,396.797z"/>
	<path fill="#8A8A8A" d="M259.046,396.8c7.148,0,8.582,0.452,12.509,6.848l14.825,28.07h-12.496l-3.531-5.82h-22.638l-3.53,5.82
		H231.69l14.826-28.07C250.47,397.208,251.929,396.8,259.046,396.8L259.046,396.8z M251.974,416.928l14.071-0.077
		C258.301,401.461,260.248,400.53,251.974,416.928L251.974,416.928z"/>
	<polygon fill="#8A8A8A" points="295.201,396.734 306.624,396.734 306.624,408.96 327.369,408.96 327.369,396.734 338.792,396.734 
		338.792,431.651 327.369,431.651 327.369,418.007 306.624,418.007 306.624,431.651 295.201,431.651 295.201,396.734 	"/>
	<polygon fill="#8A8A8A" points="403.509,405.789 403.509,396.742 447.693,396.742 447.693,405.789 431.338,405.789 
		431.338,431.708 419.915,431.708 419.915,405.789 403.509,405.789 	"/>
	<path fill="#8A8A8A" d="M222.871,396.926v34.735v0.057c-3.882,0-7.764,0-11.646,0c0-8.574,0-17.148,0-25.722l-14.579-0.001
		c-1.549,0-2.35,1.028-2.454,2.329l-1.29,16.142c-0.407,5.101-4.696,7.691-9.51,7.691c-2.588,0-5.025-0.166-7.311-0.496
		c0-2.651,0-5.302,0-7.953h2.93c1.367,0,2.556-0.808,2.681-2.232l1.701-19.39c0.225-3.303,2.072-5.158,5.997-5.16H222.871
		L222.871,396.926z"/>
	<path fill="#8A8A8A" d="M351.585,425.492c0-7.449,0-14.897,0-22.346c0-4.965,2.493-6.404,6.318-6.404c11.22,0,21.024,0,32.245,0
		c0,2.82,0,5.64,0,8.46c-9.52,0-17.622,0-27.141,0c0,1.614,0,3.228,0,4.842c9.086,0,16.756,0,25.842,0c0,2.804,0,5.607,0,8.411
		c-9.086,0-16.756,0-25.842,0c0,1.598,0,3.194,0,4.792c9.519,0,17.621,0,27.141,0c0,2.82,0,5.641,0,8.461
		c-11.294,0-21.171,0-32.465,0C353.54,431.708,351.585,429.758,351.585,425.492L351.585,425.492z"/>
</g>
</svg>
