<?xml version="1.0" encoding="utf-8"?>
<!-- Generator: Adobe Illustrator 16.0.0, SVG Export Plug-In . SVG Version: 6.00 Build 0)  -->
<!DOCTYPE svg PUBLIC "-//W3C//DTD SVG 1.1//EN" "http://www.w3.org/Graphics/SVG/1.1/DTD/svg11.dtd">
<svg version="1.1" id="Слой_1" xmlns="http://www.w3.org/2000/svg" xmlns:xlink="http://www.w3.org/1999/xlink" x="0px" y="0px"
	 width="71.032px" height="71.013px" viewBox="0 0 71.032 71.013" enable-background="new 0 0 71.032 71.013" xml:space="preserve">
<g>
	<defs>
		<rect id="SVGID_1_" y="0" width="71.032" height="71.013"/>
	</defs>
	<clipPath id="SVGID_2_">
		<use xlink:href="#SVGID_1_"  overflow="visible"/>
	</clipPath>
	<path clip-path="url(#SVGID_2_)" fill="#2B3990" d="M34.838,0.008C40.885-0.12,46.956,1.336,52.28,4.207
		c6.68,3.575,12.156,9.344,15.377,16.202c2.062,4.359,3.211,9.148,3.356,13.969c0.169,5.138-0.795,10.31-2.818,15.036
		c-3.121,7.346-8.803,13.561-15.829,17.342c-4.066,2.205-8.57,3.597-13.171,4.069c-5.141,0.528-10.401-0.059-15.284-1.759
		c-7.959-2.733-14.843-8.418-19.072-15.688C2.58,49.522,1.063,45.232,0.4,40.813c-1.196-7.799,0.308-15.989,4.239-22.834
		c3.848-6.777,9.98-12.224,17.172-15.226C25.925,1.019,30.374,0.082,34.838,0.008 M28.067,4.453
		c6.629-1.592,13.767-1.002,20.031,1.699c6.811,2.902,12.532,8.263,15.88,14.867c2.057,4.015,3.237,8.476,3.435,12.983
		c0.231,4.816-0.638,9.688-2.552,14.117c-3.064,7.171-8.859,13.123-15.947,16.375c-4.535,2.112-9.578,3.105-14.575,2.92
		c-4.143-0.153-8.26-1.109-12.033-2.833C14.929,61.256,8.937,55.006,5.913,47.5c-0.932-2.307-1.596-4.719-1.968-7.177
		c-0.34-2.199-0.421-4.432-0.32-6.651c0.123-1.697,0.33-3.389,0.704-5.049c0.951-4.345,2.833-8.479,5.477-12.054
		C14.22,10.554,20.801,6.167,28.067,4.453 M36.311,14.67L36.311,14.67c0.112,2.717-0.894,5.357-2.358,7.606
		c-2.306,3.543-5.481,6.387-8.145,9.641c-1.569,1.91-3,4.008-3.703,6.401c-0.52,1.757-0.582,3.641-0.18,5.427
		c0.434,2.031,1.375,3.917,2.498,5.65c1.171,1.787,2.55,3.43,4.02,4.978c-0.778-2.04-1.242-4.198-1.405-6.373
		c-0.172-2.607,0.175-5.328,1.482-7.628c0.872-1.564,2.181-2.855,3.691-3.804c-0.086,0.734-0.112,1.477-0.027,2.213
		c0.149,1.729,0.944,3.366,2.129,4.627c1.555,1.681,3.569,2.816,5.426,4.119c1.237,0.874,2.48,1.843,3.236,3.188
		c0.68,1.173,0.813,2.602,0.543,3.916c1.401-0.855,2.608-2.016,3.547-3.36c2.139-3.078,2.971-7.071,2.109-10.73
		c-0.506-2.147-1.708-4.158-3.507-5.463c-0.931,1.866-2.323,3.478-3.905,4.823c-0.747,0.609-1.546,1.222-2.498,1.454
		c1.847-2.068,3.229-4.594,3.743-7.333c0.496-2.472,0.31-5.041-0.302-7.475c-0.579-2.273-1.509-4.447-2.649-6.493
		C38.98,18.145,37.736,16.331,36.311,14.67 M31.275,42.725L31.275,42.725c-0.713,1.104-1.255,2.33-1.499,3.625
		c-0.24,1.207-0.12,2.514,0.482,3.602c0.299,0.563,0.747,1.026,1.182,1.486c0.576,0.271,1.403,0.404,1.878-0.12
		c0.402-0.508,0.257-1.207,0.153-1.791c0.736,0.354,1.353,0.954,1.684,1.706c0.538,1.212,0.493,2.602,0.197,3.871
		c0.634-0.845,1.209-1.759,1.515-2.777c0.316-0.991,0.244-2.111-0.286-3.017c-0.751-1.283-1.985-2.156-3.063-3.141
		c-1.017-0.907-2.024-2.01-2.182-3.426C31.321,42.739,31.29,42.729,31.275,42.725 M35.833,56.437L35.833,56.437
		c-0.01,0.95-0.033,1.899-0.042,2.851c1.477,0.024,2.952,0.049,4.429,0.072c0.023-0.949,0.03-1.9,0.052-2.85
		C38.793,56.485,37.313,56.462,35.833,56.437 M42.498,56.548L42.498,56.548c-0.009,0.949-0.032,1.899-0.042,2.849
		c0.63,0.011,1.259,0.022,1.889,0.031c0.02-0.95,0.03-1.899,0.05-2.848C43.764,56.565,43.131,56.557,42.498,56.548 M27.618,56.301
		L27.618,56.301c-0.012,0.95-0.035,1.901-0.044,2.851c0.632-0.004,1.263,0.054,1.894,0.005c0.006-0.94,0.029-1.881,0.043-2.82
		C28.88,56.318,28.249,56.313,27.618,56.301 M30.568,56.351L30.568,56.351c-0.008,0.95-0.033,1.899-0.04,2.851
		c1.258,0.021,2.517,0.04,3.776,0.063c0.02-0.951,0.032-1.902,0.049-2.853C33.091,56.394,31.83,56.37,30.568,56.351 M27.477,60.503
		L27.477,60.503c-0.007,0.427-0.014,0.854-0.022,1.282c5.616,0.1,11.232,0.186,16.848,0.28c0.007-0.43,0.014-0.856,0.022-1.284
		C38.708,60.687,33.093,60.593,27.477,60.503 M31.44,1.774L31.44,1.774c-7.809,0.913-15.229,4.684-20.609,10.411
		c-5.388,5.659-8.737,13.232-9.21,21.038c-0.138,1.706-0.102,3.423,0.034,5.128c0.261,3.23,1.009,6.415,2.172,9.438l0.013-0.003
		c0.755,1.992,1.734,3.898,2.86,5.709c4.047,6.484,10.332,11.545,17.552,14.067c4.613,1.631,9.58,2.224,14.449,1.771
		c4.739-0.436,9.382-1.896,13.518-4.249c6.804-3.828,12.209-10.07,15.009-17.357c1.893-4.88,2.613-10.202,2.123-15.412
		c-0.421-4.535-1.775-8.982-3.956-12.981c-3.747-6.932-9.976-12.487-17.303-15.391C42.841,1.832,37.057,1.102,31.44,1.774"/>
</g>
</svg>
