<?xml version="1.0" encoding="utf-8"?>
<!-- Generator: Adobe Illustrator 16.0.0, SVG Export Plug-In . SVG Version: 6.00 Build 0)  -->
<!DOCTYPE svg PUBLIC "-//W3C//DTD SVG 1.1//EN" "http://www.w3.org/Graphics/SVG/1.1/DTD/svg11.dtd">
<svg version="1.1" id="Слой_1" xmlns="http://www.w3.org/2000/svg" xmlns:xlink="http://www.w3.org/1999/xlink" x="0px" y="0px"
	 width="29.485px" height="31.747px" viewBox="0 0 29.485 31.747" enable-background="new 0 0 29.485 31.747" xml:space="preserve">
<g>
	<defs>
		<rect id="SVGID_1_" y="0" width="29.485" height="31.747"/>
	</defs>
	<clipPath id="SVGID_2_">
		<use xlink:href="#SVGID_1_"  overflow="visible"/>
	</clipPath>
	<path clip-path="url(#SVGID_2_)" fill="#FFFFFF" d="M29.485,21.931h-6.578c0,4.446-3.604,8.051-8.05,8.051
		c-4.447,0-8.051-3.604-8.051-8.051H0v9.815h29.485V21.931z"/>
	<path clip-path="url(#SVGID_2_)" fill="#FFFFFF" d="M19.977,20.923c-0.212,0-0.413-0.126-0.499-0.334L14.753,9.117l-4.236,10.749
		c-0.11,0.277-0.424,0.413-0.699,0.305c-0.278-0.109-0.414-0.423-0.305-0.699l4.727-11.995c0.081-0.205,0.277-0.34,0.498-0.342
		h0.004c0.218,0,0.415,0.132,0.498,0.334l5.234,12.71c0.114,0.275-0.019,0.591-0.293,0.704
		C20.114,20.91,20.045,20.923,19.977,20.923"/>
	<path clip-path="url(#SVGID_2_)" fill="#FFFFFF" d="M14.857,16.584c-2.954,0-5.348,2.394-5.348,5.347
		c0,2.954,2.394,5.348,5.348,5.348c2.953,0,5.348-2.394,5.348-5.348C20.205,18.978,17.81,16.584,14.857,16.584 M14.996,25.904
		c-2.194,0-3.972-1.779-3.972-3.973s1.778-3.973,3.972-3.973c2.193,0,3.973,1.779,3.973,3.973S17.189,25.904,14.996,25.904"/>
	<path clip-path="url(#SVGID_2_)" fill="#FFFFFF" d="M14.857,27.818c-3.247,0-5.887-2.64-5.887-5.887
		c0-3.246,2.64-5.887,5.887-5.887c3.246,0,5.887,2.641,5.887,5.887C20.744,25.178,18.103,27.818,14.857,27.818 M14.857,17.123
		c-2.651,0-4.809,2.157-4.809,4.809s2.158,4.809,4.809,4.809s4.808-2.157,4.808-4.809S17.508,17.123,14.857,17.123 M14.996,26.443
		c-2.488,0-4.512-2.023-4.512-4.512s2.024-4.511,4.512-4.511s4.512,2.022,4.512,4.511S17.484,26.443,14.996,26.443 M14.996,18.499
		c-1.893,0-3.433,1.54-3.433,3.433s1.54,3.434,3.433,3.434c1.893,0,3.433-1.541,3.433-3.434S16.889,18.499,14.996,18.499"/>
	<path clip-path="url(#SVGID_2_)" fill="#FFFFFF" d="M14.742,10.021c-2.288,0-3.312-1.256-3.312-2.501
		c0-2.226,1.217-2.894,2.023-3.335c0.599-0.329,0.75-0.453,0.75-0.761V0.539c0-0.298,0.241-0.54,0.539-0.54s0.539,0.242,0.539,0.54
		v2.884c0,0.987-0.726,1.386-1.31,1.706c-0.752,0.413-1.462,0.803-1.462,2.39c0,0.688,0.586,1.423,2.233,1.423
		c1.272,0,1.852-1.714,1.857-1.731c0.094-0.283,0.398-0.437,0.681-0.343c0.284,0.093,0.438,0.398,0.344,0.681
		C17.59,7.65,16.785,10.021,14.742,10.021"/>
</g>
</svg>
