<?xml version="1.0" encoding="utf-8"?>
<!-- Generator: Adobe Illustrator 16.0.0, SVG Export Plug-In . SVG Version: 6.00 Build 0)  -->
<!DOCTYPE svg PUBLIC "-//W3C//DTD SVG 1.1//EN" "http://www.w3.org/Graphics/SVG/1.1/DTD/svg11.dtd">
<svg version="1.1" id="Слой_1" xmlns="http://www.w3.org/2000/svg" xmlns:xlink="http://www.w3.org/1999/xlink" x="0px" y="0px"
	 width="22.645px" height="17.581px" viewBox="0 0 22.645 17.581" enable-background="new 0 0 22.645 17.581" xml:space="preserve">
<g>
	<defs>
		<rect id="SVGID_1_" width="22.644" height="17.581"/>
	</defs>
	<clipPath id="SVGID_2_">
		<use xlink:href="#SVGID_1_"  overflow="visible"/>
	</clipPath>
	<path clip-path="url(#SVGID_2_)" fill="#FFFFFF" d="M0,13.348c0,1.004,0.814,1.818,1.818,1.818h7.889
		c-1.439,1.06-3.397,1.896-3.397,1.896H3.518v0.519h15.608v-0.519h-2.791c0,0-2.131-0.826-3.646-1.896h8.139
		c1.004,0,1.816-0.814,1.816-1.818V12.05H0V13.348z"/>
	<path clip-path="url(#SVGID_2_)" fill="#FFFFFF" d="M20.826,0H1.817C0.813,0,0,0.814,0,1.818v9.556h22.645V1.818
		C22.645,0.814,21.831,0,20.826,0 M13.771,9.021L11.963,7.18l-1.587,1.558L8.047,2.353l6.329,2.457l-1.587,1.558l1.808,1.842
		L13.771,9.021z"/>
</g>
</svg>
