<?xml version="1.0" encoding="utf-8"?>
<!-- Generator: Adobe Illustrator 16.0.0, SVG Export Plug-In . SVG Version: 6.00 Build 0)  -->
<!DOCTYPE svg PUBLIC "-//W3C//DTD SVG 1.1//EN" "http://www.w3.org/Graphics/SVG/1.1/DTD/svg11.dtd">
<svg version="1.1" id="Слой_1" xmlns="http://www.w3.org/2000/svg" xmlns:xlink="http://www.w3.org/1999/xlink" x="0px" y="0px"
	 width="31.467px" height="19.957px" viewBox="0 0 31.467 19.957" enable-background="new 0 0 31.467 19.957" xml:space="preserve">
<g>
	<defs>
		<rect id="SVGID_1_" width="31.467" height="19.957"/>
	</defs>
	<clipPath id="SVGID_2_">
		<use xlink:href="#SVGID_1_"  overflow="visible"/>
	</clipPath>
	<path clip-path="url(#SVGID_2_)" fill="#FFFFFF" d="M26.325,4.429c1.177,0.613,0.23,2.426-0.521,3.008
		c-0.436,1.256-1.116,2.342-1.928,2.925c-0.405,0.29-0.842,0.278-1.298,0.278c-0.54,0-1.053-0.054-1.517-0.449
		c-0.742-0.633-1.358-1.686-1.754-2.881c-0.931-0.586-1.609-2.295-0.477-2.881C18.832,1.442,20.509,0,22.579,0
		C24.647,0,26.325,1.442,26.325,4.429"/>
	<path clip-path="url(#SVGID_2_)" fill="#FFFFFF" d="M30.708,13.999L25.3,11.114c-0.483-0.258-1.08-0.177-1.478,0.201l-0.467,0.445
		c-0.511,0.486-1.317,0.465-1.803-0.046l-0.311-0.327c-0.396-0.416-1.021-0.517-1.527-0.245l-5.306,2.854
		c-0.459,0.246-0.756,0.814-0.756,1.444v4.516h7.512l1.262-5.409l-1.262-1.362h2.932l-1.373,1.482l1.255,5.289h7.488v-4.513
		C31.467,14.813,31.168,14.243,30.708,13.999"/>
	<path clip-path="url(#SVGID_2_)" fill="#FFFFFF" d="M13.102,7.327V7.229c0-2.49-2.019-4.509-4.509-4.509H4.51
		C2.019,2.72,0,4.739,0,7.229V9.83c0,2.491,2.019,4.51,4.51,4.51h4.083c2.49,0,4.509-2.019,4.509-4.51l2.398-1.3L13.102,7.327z
		 M10.152,10.55H2.829V9.51h7.323V10.55z M10.152,7.709H2.829v-1.04h7.323V7.709z"/>
</g>
</svg>
