<?xml version="1.0" encoding="utf-8"?>
<!-- Generator: Adobe Illustrator 16.0.0, SVG Export Plug-In . SVG Version: 6.00 Build 0)  -->
<!DOCTYPE svg PUBLIC "-//W3C//DTD SVG 1.1//EN" "http://www.w3.org/Graphics/SVG/1.1/DTD/svg11.dtd">
<svg version="1.1" id="Слой_1" xmlns="http://www.w3.org/2000/svg" xmlns:xlink="http://www.w3.org/1999/xlink" x="0px" y="0px"
	 width="36.596px" height="27.196px" viewBox="0 0 36.596 27.196" enable-background="new 0 0 36.596 27.196" xml:space="preserve">
<g>
	<defs>
		<rect id="SVGID_1_" width="36.596" height="27.196"/>
	</defs>
	<clipPath id="SVGID_2_">
		<use xlink:href="#SVGID_1_"  overflow="visible"/>
	</clipPath>
	<path clip-path="url(#SVGID_2_)" fill="#FFFFFF" d="M23.657,19.746c0,0.92-0.643,1.688-1.501,1.889
		c0.079,0.112,0.142,0.215,0.168,0.283c0.356,0.961-1.162,2.069-0.832,2.665c0.329,0.597,2.773,1.149,3.865-0.649
		C26.856,21.46,24.657,20.179,23.657,19.746"/>
	<path clip-path="url(#SVGID_2_)" fill="#FFFFFF" d="M19.767,19.746c0-0.201,0.039-0.391,0.096-0.572
		c-0.159,0.049-0.306,0.087-0.392,0.09c-1.025,0.035-1.595-1.757-2.265-1.633c-0.669,0.124-1.968,2.267-0.607,3.872
		c1.682,1.982,3.398,0.824,4.255-0.021C20.212,21.166,19.767,20.51,19.767,19.746"/>
	<path clip-path="url(#SVGID_2_)" fill="#FFFFFF" d="M22.574,14.26c-2.867,0.442-2.422,2.969-2.11,4.005
		c0.338-0.284,0.77-0.464,1.247-0.464c0.436,0,0.835,0.149,1.158,0.392c0.037-0.134,0.075-0.248,0.112-0.313
		c0.506-0.893,2.331-0.44,2.576-1.076C25.802,16.167,24.654,13.939,22.574,14.26"/>
	<path clip-path="url(#SVGID_2_)" fill="#FFFFFF" d="M23.174,19.735c0,0.811-0.658,1.469-1.47,1.469s-1.469-0.658-1.469-1.469
		c0-0.812,0.657-1.469,1.469-1.469S23.174,18.923,23.174,19.735"/>
	<path clip-path="url(#SVGID_2_)" fill="#FFFFFF" d="M36.518,27.195H21.281c-4.09,0-7.418-3.327-7.418-7.42
		c0-4.091,3.328-7.42,7.418-7.42h6.215v0.859h-6.215c-3.617,0-6.56,2.942-6.56,6.561s2.943,6.562,6.56,6.562h15.236V27.195z"/>
	<path clip-path="url(#SVGID_2_)" fill="#FFFFFF" d="M27.157,27.196h9.438V6.987h-9.438V27.196z M29.836,24.176l-0.895,1.41V9.53
		l0.895-1.41V24.176z M32.324,24.176l-0.895,1.41V9.53l0.895-1.41V24.176z M34.813,24.176l-0.895,1.41V9.53l0.895-1.41V24.176z"/>
	<path clip-path="url(#SVGID_2_)" fill="#FFFFFF" d="M14.292,19.775c0-3.86,3.13-6.991,6.991-6.991H11.43v13.982h9.853
		C17.421,26.766,14.292,23.636,14.292,19.775"/>
	<path clip-path="url(#SVGID_2_)" fill="#FFFFFF" d="M21.282,27.141H11.055V12.41h10.228v0.75c-3.648,0-6.615,2.967-6.615,6.615
		c0,3.648,2.967,6.616,6.615,6.616V27.141z M11.805,26.391h6.241c-2.443-1.2-4.129-3.715-4.129-6.616s1.686-5.415,4.129-6.615
		h-6.241V26.391z"/>
	<path clip-path="url(#SVGID_2_)" fill="#FFFFFF" d="M0,24.149h12.248v-8.725H8.724C3.906,15.424,0,19.331,0,24.149z"/>
	<path clip-path="url(#SVGID_2_)" fill="#FFFFFF" d="M34.813,0v7.851h-5.592V5.592C29.221,2.504,31.725,0,34.813,0z"/>
	<rect y="24.149" clip-path="url(#SVGID_2_)" fill="#FFFFFF" width="7.402" height="3.047"/>
</g>
</svg>
