<?xml version="1.0" encoding="utf-8"?>
<!-- Generator: Adobe Illustrator 16.0.0, SVG Export Plug-In . SVG Version: 6.00 Build 0)  -->
<!DOCTYPE svg PUBLIC "-//W3C//DTD SVG 1.1//EN" "http://www.w3.org/Graphics/SVG/1.1/DTD/svg11.dtd">
<svg version="1.1" id="Слой_1" xmlns="http://www.w3.org/2000/svg" xmlns:xlink="http://www.w3.org/1999/xlink" x="0px" y="0px"
	 width="24.083px" height="29.45px" viewBox="0 0 24.083 29.45" enable-background="new 0 0 24.083 29.45" xml:space="preserve">
<g>
	<defs>
		<rect id="SVGID_1_" width="24.083" height="29.45"/>
	</defs>
	<clipPath id="SVGID_2_">
		<use xlink:href="#SVGID_1_"  overflow="visible"/>
	</clipPath>
	<path clip-path="url(#SVGID_2_)" fill="#FFFFFF" d="M7.026,11.809H5.603c0-3.425,2.786-6.211,6.21-6.211v1.423
		C9.174,7.021,7.026,9.168,7.026,11.809"/>
	<path clip-path="url(#SVGID_2_)" fill="#FFFFFF" d="M4.276,11.809H2.853c0-4.941,4.019-8.96,8.96-8.96v1.423
		C7.657,4.271,4.276,7.652,4.276,11.809"/>
	<path clip-path="url(#SVGID_2_)" fill="#FFFFFF" d="M1.423,11.813H0C0,5.299,5.299,0,11.813,0v1.424
		C6.084,1.424,1.423,6.084,1.423,11.813"/>
	<path clip-path="url(#SVGID_2_)" fill="#FFFFFF" d="M22.82,9.84H11.184c-0.696,0-1.261,0.564-1.261,1.261V29.45h14.16V11.101
		C24.083,10.404,23.518,9.84,22.82,9.84 M12.766,15.167h8.392v0.685h-8.392V15.167z M12.766,17.531h8.392v0.685h-8.392V17.531z
		 M12.766,19.895h8.392v0.686h-8.392V19.895z M12.766,22.259h8.392v0.686h-8.392V22.259z M21.157,27.818
		c-0.558,0-1.01-0.452-1.01-1.011c0-0.558,0.452-1.01,1.01-1.01c0.559,0,1.011,0.452,1.011,1.01
		C22.168,27.366,21.716,27.818,21.157,27.818"/>
</g>
</svg>
