<?xml version="1.0" encoding="utf-8"?>
<!-- Generator: Adobe Illustrator 16.0.0, SVG Export Plug-In . SVG Version: 6.00 Build 0)  -->
<!DOCTYPE svg PUBLIC "-//W3C//DTD SVG 1.1//EN" "http://www.w3.org/Graphics/SVG/1.1/DTD/svg11.dtd">
<svg version="1.1" id="Слой_1" xmlns="http://www.w3.org/2000/svg" xmlns:xlink="http://www.w3.org/1999/xlink" x="0px" y="0px"
	 width="23.137px" height="23.137px" viewBox="0 0 23.137 23.137" enable-background="new 0 0 23.137 23.137" xml:space="preserve">
<g>
	<defs>
		<rect id="SVGID_1_" y="0" width="23.137" height="23.137"/>
	</defs>
	<clipPath id="SVGID_2_">
		<use xlink:href="#SVGID_1_"  overflow="visible"/>
	</clipPath>
	<path clip-path="url(#SVGID_2_)" fill="#FFFFFF" d="M13.263,11.011c0.403-0.404,0.557-0.862,0.557-1.432
		c0-0.682-0.223-1.155-0.71-1.475c-0.431-0.278-0.918-0.389-1.738-0.389h-1.28v3.894h1.085
		C12.233,11.609,12.831,11.414,13.263,11.011"/>
	<path clip-path="url(#SVGID_2_)" fill="#FFFFFF" d="M11.568,0C5.18,0,0,5.179,0,11.568c0,6.389,5.18,11.569,11.569,11.569
		c6.39,0,11.568-5.18,11.568-11.569C23.137,5.179,17.958,0,11.568,0 M14.765,13.639v1.099h-4.673v1.6H8.799v-1.6H7.88v-1.099h0.918
		v-0.918H7.88v-1.112h0.918V6.602h2.628c1.183,0,1.947,0.181,2.573,0.612c0.736,0.5,1.169,1.21,1.169,2.322
		c0,0.876-0.308,1.628-0.863,2.17c-0.667,0.668-1.529,1.001-2.921,1.001h-1.293v0.932H14.765z"/>
</g>
</svg>
