<?xml version="1.0" encoding="utf-8"?>
<!-- Generator: Adobe Illustrator 16.0.0, SVG Export Plug-In . SVG Version: 6.00 Build 0)  -->
<!DOCTYPE svg PUBLIC "-//W3C//DTD SVG 1.1//EN" "http://www.w3.org/Graphics/SVG/1.1/DTD/svg11.dtd">
<svg version="1.1" id="Слой_1" xmlns="http://www.w3.org/2000/svg" xmlns:xlink="http://www.w3.org/1999/xlink" x="0px" y="0px"
	 width="31.725px" height="21.363px" viewBox="0 0 31.725 21.363" enable-background="new 0 0 31.725 21.363" xml:space="preserve">
<g>
	<defs>
		<rect id="SVGID_1_" y="0" width="31.725" height="21.363"/>
	</defs>
	<clipPath id="SVGID_2_">
		<use xlink:href="#SVGID_1_"  overflow="visible"/>
	</clipPath>
	<path clip-path="url(#SVGID_2_)" fill="#FFFFFF" d="M6.964,21.363H6.901c-0.853,0-1.544-0.691-1.544-1.543V1.543
		C5.357,0.691,6.048,0,6.901,0h0.063c0.852,0,1.543,0.691,1.543,1.543V19.82C8.507,20.672,7.816,21.363,6.964,21.363"/>
	<path clip-path="url(#SVGID_2_)" fill="#FFFFFF" d="M11.608,21.363h-0.063c-0.853,0-1.544-0.691-1.544-1.543V1.543
		C10.001,0.691,10.692,0,11.545,0h0.063c0.852,0,1.543,0.691,1.543,1.543V19.82C13.151,20.672,12.46,21.363,11.608,21.363"/>
	<path clip-path="url(#SVGID_2_)" fill="#FFFFFF" d="M16.252,21.363h-0.063c-0.853,0-1.544-0.691-1.544-1.543V1.543
		C14.645,0.691,15.336,0,16.189,0h0.063c0.853,0,1.543,0.691,1.543,1.543V19.82C17.795,20.672,17.104,21.363,16.252,21.363"/>
	<path clip-path="url(#SVGID_2_)" fill="#FFFFFF" d="M20.896,21.363h-0.063c-0.853,0-1.544-0.691-1.544-1.543V1.543
		C19.289,0.691,19.98,0,20.833,0h0.063c0.852,0,1.543,0.691,1.543,1.543V19.82C22.439,20.672,21.748,21.363,20.896,21.363"/>
	<path clip-path="url(#SVGID_2_)" fill="#FFFFFF" d="M25.54,21.363h-0.063c-0.854,0-1.545-0.691-1.545-1.543V1.543
		C23.933,0.691,24.624,0,25.478,0h0.063c0.853,0,1.543,0.691,1.543,1.543V19.82C27.083,20.672,26.393,21.363,25.54,21.363"/>
	<rect x="3.986" y="3.41" clip-path="url(#SVGID_2_)" fill="#FFFFFF" width="24.272" height="3.818"/>
	<rect x="2.811" y="4.326" clip-path="url(#SVGID_2_)" fill="#FFFFFF" width="26.565" height="1.986"/>
	<rect x="3.986" y="14.394" clip-path="url(#SVGID_2_)" fill="#FFFFFF" width="24.272" height="3.817"/>
	<rect x="2.811" y="15.31" clip-path="url(#SVGID_2_)" fill="#FFFFFF" width="26.565" height="1.985"/>
	<path clip-path="url(#SVGID_2_)" fill="#FFFFFF" d="M30.51,16.668H0v-0.745h30.51c0.259,0,0.47-0.211,0.47-0.47V6.162
		c0-0.259-0.211-0.47-0.47-0.47H0V4.947h30.51c0.67,0,1.215,0.544,1.215,1.215v9.291C31.725,16.123,31.18,16.668,30.51,16.668"/>
</g>
</svg>
