<?xml version="1.0" encoding="utf-8"?>
<!-- Generator: Adobe Illustrator 16.0.0, SVG Export Plug-In . SVG Version: 6.00 Build 0)  -->
<!DOCTYPE svg PUBLIC "-//W3C//DTD SVG 1.1//EN" "http://www.w3.org/Graphics/SVG/1.1/DTD/svg11.dtd">
<svg version="1.1" id="Слой_1" xmlns="http://www.w3.org/2000/svg" xmlns:xlink="http://www.w3.org/1999/xlink" x="0px" y="0px"
	 width="76.706px" height="64.547px" viewBox="0 0 76.706 64.547" enable-background="new 0 0 76.706 64.547" xml:space="preserve">
<g>
	<defs>
		<rect id="SVGID_1_" width="76.706" height="64.547"/>
	</defs>
	<clipPath id="SVGID_2_">
		<use xlink:href="#SVGID_1_"  overflow="visible"/>
	</clipPath>
	
		<path clip-path="url(#SVGID_2_)" fill="none" stroke="#FFFFFF" stroke-width="1.5" stroke-linecap="round" stroke-linejoin="round" stroke-miterlimit="10" d="
		M0.75,38.768v6.312c0,3.336,2.703,6.038,6.037,6.038h36.101"/>
	
		<path clip-path="url(#SVGID_2_)" fill="none" stroke="#FFFFFF" stroke-width="1.5" stroke-linecap="round" stroke-linejoin="round" stroke-miterlimit="10" d="
		M42.888,51.117h27.031c3.335,0,6.038-2.703,6.038-6.037v-6.313"/>
	
		<path clip-path="url(#SVGID_2_)" fill="none" stroke="#FFFFFF" stroke-width="1.5" stroke-linecap="round" stroke-linejoin="round" stroke-miterlimit="10" d="
		M75.956,38.525V6.788c0-3.335-2.703-6.038-6.037-6.038H6.787c-3.334,0-6.037,2.703-6.037,6.038v31.738"/>
	<polygon clip-path="url(#SVGID_2_)" fill="#FFFFFF" points="62.234,29.519 60.734,27.991 59.417,29.284 57.486,23.987 
		62.736,26.025 61.419,27.318 62.92,28.846 	"/>
	
		<rect x="22.059" y="59.678" clip-path="url(#SVGID_2_)" fill="none" stroke="#FFFFFF" stroke-width="1.5" stroke-linecap="round" stroke-linejoin="round" stroke-miterlimit="10" width="33.48" height="4.119"/>
	
		<path clip-path="url(#SVGID_2_)" fill="none" stroke="#FFFFFF" stroke-width="1.5" stroke-linecap="round" stroke-linejoin="round" stroke-miterlimit="10" d="
		M24.524,59.678c0,0,8.415-0.758,8.415-8.561"/>
	
		<path clip-path="url(#SVGID_2_)" fill="none" stroke="#FFFFFF" stroke-width="1.5" stroke-linecap="round" stroke-linejoin="round" stroke-miterlimit="10" d="
		M53.16,59.678c0,0-8.415-0.758-8.415-8.561"/>
	<path clip-path="url(#SVGID_2_)" fill="#FFFFFF" d="M39.377,40.902L39.377,40.902c0.02,0.467-0.153,0.921-0.406,1.308
		c-0.396,0.61-0.943,1.1-1.401,1.659c-0.27,0.329-0.516,0.69-0.637,1.103c-0.089,0.302-0.1,0.626-0.031,0.934
		c0.075,0.349,0.236,0.673,0.43,0.972c0.201,0.308,0.438,0.59,0.69,0.856c-0.133-0.352-0.213-0.722-0.241-1.096
		c-0.03-0.449,0.03-0.917,0.255-1.313c0.149-0.269,0.375-0.491,0.635-0.654c-0.015,0.126-0.02,0.254-0.005,0.38
		c0.025,0.299,0.163,0.58,0.366,0.798c0.268,0.289,0.614,0.483,0.934,0.708c0.213,0.15,0.427,0.316,0.557,0.549
		c0.117,0.202,0.141,0.448,0.094,0.674c0.241-0.148,0.448-0.347,0.61-0.579c0.368-0.529,0.512-1.216,0.363-1.846
		c-0.087-0.369-0.294-0.715-0.604-0.94c-0.159,0.321-0.398,0.6-0.672,0.83c-0.128,0.105-0.266,0.21-0.43,0.25
		c0.318-0.355,0.556-0.79,0.646-1.262c0.085-0.425,0.053-0.867-0.053-1.286c-0.1-0.391-0.26-0.765-0.456-1.117
		C39.837,41.5,39.623,41.188,39.377,40.902 M38.511,45.729L38.511,45.729c-0.123,0.189-0.216,0.4-0.258,0.624
		c-0.041,0.207-0.021,0.432,0.083,0.619c0.051,0.097,0.128,0.177,0.203,0.256c0.099,0.047,0.242,0.069,0.324-0.021
		c0.068-0.087,0.044-0.207,0.025-0.308c0.126,0.061,0.233,0.165,0.289,0.294c0.093,0.208,0.085,0.447,0.034,0.666
		c0.108-0.146,0.208-0.303,0.261-0.479c0.054-0.171,0.042-0.362-0.049-0.519c-0.129-0.221-0.342-0.371-0.527-0.54
		c-0.175-0.157-0.348-0.346-0.376-0.59C38.519,45.731,38.514,45.73,38.511,45.729"/>
	
		<line clip-path="url(#SVGID_2_)" fill="none" stroke="#FFFFFF" stroke-width="1.5" stroke-linecap="square" stroke-linejoin="round" stroke-miterlimit="10" x1="14.431" y1="29.718" x2="37.604" y2="6.545"/>
	
		<line clip-path="url(#SVGID_2_)" fill="none" stroke="#FFFFFF" stroke-width="1.5" stroke-linecap="square" stroke-linejoin="round" stroke-miterlimit="10" x1="18.585" y1="32.775" x2="41.759" y2="9.602"/>
	
		<line clip-path="url(#SVGID_2_)" fill="none" stroke="#FFFFFF" stroke-width="1.5" stroke-linecap="square" stroke-linejoin="round" stroke-miterlimit="10" x1="50.95" y1="28.074" x2="66.862" y2="12.162"/>
	
		<line clip-path="url(#SVGID_2_)" fill="none" stroke="#FFFFFF" stroke-width="1.5" stroke-linecap="square" stroke-linejoin="round" stroke-miterlimit="10" x1="29.486" y1="28.311" x2="36.893" y2="28.311"/>
	
		<line clip-path="url(#SVGID_2_)" fill="none" stroke="#FFFFFF" stroke-width="1.5" stroke-linecap="round" stroke-linejoin="round" stroke-miterlimit="10" x1="0.75" y1="38.525" x2="75.956" y2="38.525"/>
	
		<path clip-path="url(#SVGID_2_)" fill="none" stroke="#FFFFFF" stroke-width="1.5" stroke-linejoin="round" stroke-miterlimit="10" d="
		M5.508,11.521v-3.42c0-1.288,1.044-2.332,2.332-2.332h17.412"/>
	
		<path clip-path="url(#SVGID_2_)" fill="none" stroke="#FFFFFF" stroke-width="1.5" stroke-linejoin="round" stroke-miterlimit="10" d="
		M72.904,43.116v1.476c0,1.805-1.463,3.268-3.267,3.268h-6.164"/>
</g>
</svg>
