<?xml version="1.0" encoding="utf-8"?>
<!-- Generator: Adobe Illustrator 16.0.0, SVG Export Plug-In . SVG Version: 6.00 Build 0)  -->
<!DOCTYPE svg PUBLIC "-//W3C//DTD SVG 1.1//EN" "http://www.w3.org/Graphics/SVG/1.1/DTD/svg11.dtd">
<svg version="1.1" id="Слой_1" xmlns="http://www.w3.org/2000/svg" xmlns:xlink="http://www.w3.org/1999/xlink" x="0px" y="0px"
	 width="120.638px" height="85.017px" viewBox="0 0 120.638 85.017" enable-background="new 0 0 120.638 85.017"
	 xml:space="preserve">
<line fill="none" stroke="#FFFFFF" stroke-width="1.5" stroke-linecap="round" stroke-linejoin="round" stroke-miterlimit="10" x1="61.938" y1="27.237" x2="71.595" y2="49.096"/>
<line fill="none" stroke="#FFFFFF" stroke-width="1.5" stroke-linecap="square" stroke-linejoin="round" stroke-miterlimit="10" x1="49.419" y1="50.254" x2="57.27" y2="32.376"/>
<g>
	<defs>
		<rect id="SVGID_1_" width="120.638" height="85.017"/>
	</defs>
	<clipPath id="SVGID_2_">
		<use xlink:href="#SVGID_1_"  overflow="visible"/>
	</clipPath>
	
		<circle clip-path="url(#SVGID_2_)" fill="none" stroke="#FFFFFF" stroke-width="1.5" stroke-linecap="round" stroke-linejoin="round" stroke-miterlimit="10" cx="60.78" cy="55.043" r="12.326"/>
	
		<circle clip-path="url(#SVGID_2_)" fill="none" stroke="#FFFFFF" stroke-width="1.5" stroke-linecap="round" stroke-linejoin="round" stroke-miterlimit="10" cx="60.78" cy="55.043" r="6.727"/>
</g>
<g>
	<defs>
		<path id="SVGID_3_" d="M78.962,58.471c0,10.248-8.308,18.556-18.555,18.556s-18.555-8.308-18.555-18.556H26.166v22.622h67.956
			V58.471H78.962z"/>
	</defs>
	<clipPath id="SVGID_4_">
		<use xlink:href="#SVGID_3_"  overflow="visible"/>
	</clipPath>
	
		<line clip-path="url(#SVGID_4_)" fill="none" stroke="#FFFFFF" stroke-width="1.5" stroke-linecap="round" stroke-linejoin="round" stroke-miterlimit="10" x1="0.75" y1="84.267" x2="29.417" y2="55.6"/>
	
		<line clip-path="url(#SVGID_4_)" fill="none" stroke="#FFFFFF" stroke-width="1.5" stroke-linecap="round" stroke-linejoin="round" stroke-miterlimit="10" x1="7.212" y1="84.267" x2="35.878" y2="55.6"/>
	
		<line clip-path="url(#SVGID_4_)" fill="none" stroke="#FFFFFF" stroke-width="1.5" stroke-linecap="round" stroke-linejoin="round" stroke-miterlimit="10" x1="13.674" y1="84.267" x2="42.34" y2="55.6"/>
	
		<line clip-path="url(#SVGID_4_)" fill="none" stroke="#FFFFFF" stroke-width="1.5" stroke-linecap="round" stroke-linejoin="round" stroke-miterlimit="10" x1="20.137" y1="84.267" x2="48.803" y2="55.6"/>
	
		<line clip-path="url(#SVGID_4_)" fill="none" stroke="#FFFFFF" stroke-width="1.5" stroke-linecap="round" stroke-linejoin="round" stroke-miterlimit="10" x1="26.599" y1="84.267" x2="55.266" y2="55.6"/>
	
		<line clip-path="url(#SVGID_4_)" fill="none" stroke="#FFFFFF" stroke-width="1.5" stroke-linecap="round" stroke-linejoin="round" stroke-miterlimit="10" x1="33.061" y1="84.267" x2="61.729" y2="55.6"/>
	
		<line clip-path="url(#SVGID_4_)" fill="none" stroke="#FFFFFF" stroke-width="1.5" stroke-linecap="round" stroke-linejoin="round" stroke-miterlimit="10" x1="39.523" y1="84.267" x2="68.19" y2="55.6"/>
	
		<line clip-path="url(#SVGID_4_)" fill="none" stroke="#FFFFFF" stroke-width="1.5" stroke-linecap="round" stroke-linejoin="round" stroke-miterlimit="10" x1="45.986" y1="84.267" x2="74.652" y2="55.6"/>
	
		<line clip-path="url(#SVGID_4_)" fill="none" stroke="#FFFFFF" stroke-width="1.5" stroke-linecap="round" stroke-linejoin="round" stroke-miterlimit="10" x1="52.448" y1="84.267" x2="81.114" y2="55.6"/>
	
		<line clip-path="url(#SVGID_4_)" fill="none" stroke="#FFFFFF" stroke-width="1.5" stroke-linecap="round" stroke-linejoin="round" stroke-miterlimit="10" x1="58.91" y1="84.267" x2="87.576" y2="55.6"/>
	
		<line clip-path="url(#SVGID_4_)" fill="none" stroke="#FFFFFF" stroke-width="1.5" stroke-linecap="round" stroke-linejoin="round" stroke-miterlimit="10" x1="65.372" y1="84.267" x2="94.038" y2="55.6"/>
	
		<line clip-path="url(#SVGID_4_)" fill="none" stroke="#FFFFFF" stroke-width="1.5" stroke-linecap="round" stroke-linejoin="round" stroke-miterlimit="10" x1="71.835" y1="84.267" x2="100.502" y2="55.6"/>
	
		<line clip-path="url(#SVGID_4_)" fill="none" stroke="#FFFFFF" stroke-width="1.5" stroke-linecap="round" stroke-linejoin="round" stroke-miterlimit="10" x1="78.297" y1="84.267" x2="106.964" y2="55.6"/>
	
		<line clip-path="url(#SVGID_4_)" fill="none" stroke="#FFFFFF" stroke-width="1.5" stroke-linecap="round" stroke-linejoin="round" stroke-miterlimit="10" x1="84.759" y1="84.267" x2="113.426" y2="55.6"/>
	
		<line clip-path="url(#SVGID_4_)" fill="none" stroke="#FFFFFF" stroke-width="1.5" stroke-linecap="round" stroke-linejoin="round" stroke-miterlimit="10" x1="91.222" y1="84.267" x2="119.888" y2="55.6"/>
</g>
<g>
	<defs>
		<rect id="SVGID_5_" width="120.638" height="85.017"/>
	</defs>
	<clipPath id="SVGID_6_">
		<use xlink:href="#SVGID_5_"  overflow="visible"/>
	</clipPath>
	
		<path clip-path="url(#SVGID_6_)" fill="none" stroke="#FFFFFF" stroke-width="1.5" stroke-linecap="square" stroke-miterlimit="10" d="
		M94.122,58.472h-15.16c0,10.247-8.308,18.555-18.556,18.555c-10.247,0-18.555-8.308-18.555-18.555H26.166v22.621h67.957V58.472z"/>
	
		<polygon clip-path="url(#SVGID_6_)" fill="none" stroke="#FFFFFF" stroke-width="1.5" stroke-linecap="square" stroke-linejoin="round" stroke-miterlimit="10" points="
		65.621,10.463 55.467,10.463 56.467,0.75 64.621,0.75 	"/>
	
		<rect x="57.116" y="10.463" clip-path="url(#SVGID_6_)" fill="none" stroke="#FFFFFF" stroke-width="1.5" stroke-linecap="square" stroke-miterlimit="10" width="6.676" height="2.638"/>
	
		<polyline clip-path="url(#SVGID_6_)" fill="none" stroke="#FFFFFF" stroke-width="1.5" stroke-linecap="square" stroke-miterlimit="10" points="
		59.033,13.48 59.033,15.999 61.94,15.999 61.94,13.48 	"/>
	
		<path clip-path="url(#SVGID_6_)" fill="none" stroke="#FFFFFF" stroke-width="1.5" stroke-linecap="round" stroke-linejoin="round" stroke-miterlimit="10" d="
		M60.229,16.517c0,0-3.462,3.256-3.462,6.35c0,3.093,2.223,4.37,4.015,4.37c2.54,0,4.085-2.245,3.426-4.37
		c-0.556-1.792-1.544,0.466-3.21,0.447c-0.978-0.011-1.827-0.596-1.827-2.007c0-1.411,1.707-3.945,1.707-3.945v-0.845H60.229z"/>
</g>
</svg>
