<?xml version="1.0" encoding="utf-8"?>
<!-- Generator: Adobe Illustrator 16.0.0, SVG Export Plug-In . SVG Version: 6.00 Build 0)  -->
<!DOCTYPE svg PUBLIC "-//W3C//DTD SVG 1.1//EN" "http://www.w3.org/Graphics/SVG/1.1/DTD/svg11.dtd">
<svg version="1.1" id="Слой_1" xmlns="http://www.w3.org/2000/svg" xmlns:xlink="http://www.w3.org/1999/xlink" x="0px" y="0px"
	 width="52.455px" height="76.713px" viewBox="0 0 52.455 76.713" enable-background="new 0 0 52.455 76.713" xml:space="preserve">
<g>
	<defs>
		<rect id="SVGID_1_" y="0" width="52.455" height="76.713"/>
	</defs>
	<clipPath id="SVGID_2_">
		<use xlink:href="#SVGID_1_"  overflow="visible"/>
	</clipPath>
	
		<path clip-path="url(#SVGID_2_)" fill="none" stroke="#FFFFFF" stroke-width="1.5" stroke-linecap="square" stroke-linejoin="round" stroke-miterlimit="10" d="
		M21.023,40.907c0-10.991,8.91-19.9,19.9-19.9"/>
	
		<path clip-path="url(#SVGID_2_)" fill="none" stroke="#FFFFFF" stroke-width="1.5" stroke-linecap="square" stroke-linejoin="round" stroke-miterlimit="10" d="
		M11.073,40.907c0-16.486,13.365-29.851,29.851-29.851"/>
	
		<path clip-path="url(#SVGID_2_)" fill="none" stroke="#FFFFFF" stroke-width="1.5" stroke-linecap="square" stroke-linejoin="round" stroke-miterlimit="10" d="
		M0.75,40.923C0.75,18.737,18.736,0.75,40.923,0.75"/>
	
		<path clip-path="url(#SVGID_2_)" fill="none" stroke="#FFFFFF" stroke-width="1.5" stroke-linecap="square" stroke-linejoin="round" stroke-miterlimit="10" d="
		M49.378,43.403H27.916c-1.285,0-2.327,1.042-2.327,2.327v30.232h26.116V45.73C51.705,44.445,50.663,43.403,49.378,43.403z"/>
	<rect x="30.834" y="51.722" clip-path="url(#SVGID_2_)" fill="#FFFFFF" width="15.476" height="0.894"/>
	<rect x="30.834" y="54.804" clip-path="url(#SVGID_2_)" fill="#FFFFFF" width="15.476" height="0.894"/>
	<rect x="30.834" y="57.887" clip-path="url(#SVGID_2_)" fill="#FFFFFF" width="15.476" height="0.894"/>
	<rect x="30.834" y="60.969" clip-path="url(#SVGID_2_)" fill="#FFFFFF" width="15.476" height="0.894"/>
	<path clip-path="url(#SVGID_2_)" fill="#FFFFFF" d="M46.311,71.751c-1.029,0-1.862-0.835-1.862-1.862
		c0-1.029,0.833-1.863,1.862-1.863s1.862,0.834,1.862,1.863C48.173,70.917,47.34,71.751,46.311,71.751"/>
	
		<rect x="30.834" y="38.884" clip-path="url(#SVGID_2_)" fill="none" stroke="#FFFFFF" stroke-width="1.5" stroke-linecap="square" stroke-linejoin="round" stroke-miterlimit="10" width="4.519" height="4.52"/>
	
		<polyline clip-path="url(#SVGID_2_)" fill="none" stroke="#FFFFFF" stroke-width="1.5" stroke-linecap="round" stroke-linejoin="round" stroke-miterlimit="10" points="
		33.094,38.187 33.094,34.055 31.901,32.022 34.317,32.022 33.094,34.055 	"/>
</g>
</svg>
