<?xml version="1.0" encoding="utf-8"?>
<!-- Generator: Adobe Illustrator 16.0.0, SVG Export Plug-In . SVG Version: 6.00 Build 0)  -->
<!DOCTYPE svg PUBLIC "-//W3C//DTD SVG 1.1//EN" "http://www.w3.org/Graphics/SVG/1.1/DTD/svg11.dtd">
<svg version="1.1" id="Слой_1" xmlns="http://www.w3.org/2000/svg" xmlns:xlink="http://www.w3.org/1999/xlink" x="0px" y="0px"
	 width="50.227px" height="93.141px" viewBox="0 0 50.227 93.141" enable-background="new 0 0 50.227 93.141" xml:space="preserve">
<g>
	<defs>
		<rect id="SVGID_1_" width="50.226" height="93.141"/>
	</defs>
	<clipPath id="SVGID_2_">
		<use xlink:href="#SVGID_1_"  overflow="visible"/>
	</clipPath>
	
		<polyline clip-path="url(#SVGID_2_)" fill="none" stroke="#FFFFFF" stroke-width="1.5" stroke-linecap="round" stroke-miterlimit="10" points="
		49.477,34.586 49.477,6.783 41.473,4.366 8.954,4.366 0.75,6.783 0.75,18.016 	"/>
	
		<polyline clip-path="url(#SVGID_2_)" fill="none" stroke="#FFFFFF" stroke-width="1.5" stroke-linecap="round" stroke-miterlimit="10" points="
		0.75,17.131 0.75,73.332 11.874,73.332 	"/>
	
		<path clip-path="url(#SVGID_2_)" fill="none" stroke="#FFFFFF" stroke-width="1.5" stroke-linecap="round" stroke-miterlimit="10" d="
		M41.473,15.738H9.674 M9.674,73.332h39.802V32.905"/>
</g>
<polygon fill="none" stroke="#FFFFFF" stroke-width="1.5" stroke-linecap="round" stroke-miterlimit="10" points="30.234,83.783 
	28.479,80.742 30.234,77.7 33.747,77.7 35.503,80.742 33.747,83.783 "/>
<polygon fill="none" stroke="#FFFFFF" stroke-width="1.5" stroke-linecap="round" stroke-miterlimit="10" points="18.068,83.783 
	16.312,80.742 18.068,77.7 21.58,77.7 23.336,80.742 21.58,83.783 "/>
<g>
	<defs>
		<rect id="SVGID_3_" width="50.226" height="93.141"/>
	</defs>
	<clipPath id="SVGID_4_">
		<use xlink:href="#SVGID_3_"  overflow="visible"/>
	</clipPath>
	
		<polyline clip-path="url(#SVGID_4_)" fill="none" stroke="#FFFFFF" stroke-width="1.5" stroke-linecap="round" stroke-miterlimit="10" points="
		33.352,4.366 33.352,0.75 16.858,0.75 16.858,4.366 	"/>
	
		<line clip-path="url(#SVGID_4_)" fill="none" stroke="#FFFFFF" stroke-width="1.5" stroke-linecap="round" stroke-miterlimit="10" x1="1.045" y1="68.939" x2="48.641" y2="68.939"/>
</g>
<rect x="24.115" y="59.921" fill="none" stroke="#FFFFFF" stroke-width="1.5" stroke-linecap="round" stroke-miterlimit="10" width="1.168" height="1.168"/>
<rect x="28.595" y="59.921" fill="none" stroke="#FFFFFF" stroke-width="1.5" stroke-linecap="round" stroke-miterlimit="10" width="1.168" height="1.168"/>
<rect x="33.074" y="59.921" fill="none" stroke="#FFFFFF" stroke-width="1.5" stroke-linecap="round" stroke-miterlimit="10" width="1.168" height="1.168"/>
<g>
	<defs>
		<rect id="SVGID_5_" width="50.226" height="93.141"/>
	</defs>
	<clipPath id="SVGID_6_">
		<use xlink:href="#SVGID_5_"  overflow="visible"/>
	</clipPath>
	
		<line clip-path="url(#SVGID_6_)" fill="none" stroke="#FFFFFF" stroke-width="1.5" stroke-linecap="round" stroke-miterlimit="10" x1="1.045" y1="21.183" x2="48.641" y2="21.183"/>
</g>
<line fill="none" stroke="#FFFFFF" stroke-width="1.5" stroke-linecap="round" stroke-miterlimit="10" x1="8.954" y1="4.366" x2="8.954" y2="68.177"/>
<line fill="none" stroke="#FFFFFF" stroke-width="1.5" stroke-linecap="round" stroke-miterlimit="10" x1="41.472" y1="4.366" x2="41.472" y2="68.939"/>
<line fill="none" stroke="#FFFFFF" stroke-width="1.5" stroke-linecap="round" stroke-miterlimit="10" x1="19.824" y1="73.804" x2="19.824" y2="77.701"/>
<g>
	<defs>
		<rect id="SVGID_7_" width="50.226" height="93.141"/>
	</defs>
	<clipPath id="SVGID_8_">
		<use xlink:href="#SVGID_7_"  overflow="visible"/>
	</clipPath>
	
		<path clip-path="url(#SVGID_8_)" fill="none" stroke="#FFFFFF" stroke-width="1.5" stroke-linecap="square" stroke-miterlimit="10" d="
		M19.824,83.783v2.435c0,1.562-1.266,2.828-2.828,2.828h-5.402"/>
	
		<path clip-path="url(#SVGID_8_)" fill="none" stroke="#FFFFFF" stroke-width="1.5" stroke-linecap="square" stroke-miterlimit="10" d="
		M9.674,92.391h18.972c1.847,0,3.344-1.497,3.344-3.344v-5.265"/>
	
		<line clip-path="url(#SVGID_8_)" fill="none" stroke="#FFFFFF" stroke-width="1.5" stroke-linecap="round" stroke-miterlimit="10" x1="31.99" y1="73.804" x2="31.99" y2="77.701"/>
	
		<polyline clip-path="url(#SVGID_8_)" fill="none" stroke="#FFFFFF" stroke-width="1.5" stroke-linecap="round" stroke-miterlimit="10" points="
		13.685,39.104 13.685,26.855 18.004,26.855 	"/>
	
		<polyline clip-path="url(#SVGID_8_)" fill="none" stroke="#FFFFFF" stroke-width="1.5" stroke-linecap="round" stroke-miterlimit="10" points="
		16.979,35.028 16.979,31.082 19.375,31.082 	"/>
	
		<line clip-path="url(#SVGID_8_)" fill="none" stroke="#FFFFFF" stroke-width="1.5" stroke-linecap="round" stroke-miterlimit="10" x1="13.685" y1="9.424" x2="24.115" y2="9.424"/>
</g>
</svg>
