<?xml version="1.0" encoding="utf-8"?>
<!-- Generator: Adobe Illustrator 16.0.0, SVG Export Plug-In . SVG Version: 6.00 Build 0)  -->
<!DOCTYPE svg PUBLIC "-//W3C//DTD SVG 1.1//EN" "http://www.w3.org/Graphics/SVG/1.1/DTD/svg11.dtd">
<svg version="1.1" id="Слой_1" xmlns="http://www.w3.org/2000/svg" xmlns:xlink="http://www.w3.org/1999/xlink" x="0px" y="0px"
	 width="85.886px" height="70.396px" viewBox="0 0 85.886 70.396" enable-background="new 0 0 85.886 70.396" xml:space="preserve">
<g>
	<defs>
		<rect id="SVGID_1_" y="0" width="85.886" height="70.396"/>
	</defs>
	<clipPath id="SVGID_2_">
		<use xlink:href="#SVGID_1_"  overflow="visible"/>
	</clipPath>
	
		<path clip-path="url(#SVGID_2_)" fill="none" stroke="#FFFFFF" stroke-width="1.5" stroke-linecap="round" stroke-linejoin="round" stroke-miterlimit="10" d="
		M70.629,18.914c3.572,1.858,0.702,7.36-1.578,9.127c-1.32,3.81-3.384,7.103-5.849,8.87c-1.228,0.88-2.554,0.845-3.938,0.845
		c-1.637,0-3.192-0.163-4.599-1.361c-2.254-1.92-4.122-5.116-5.321-8.742c-2.823-1.777-4.883-6.959-1.445-8.738"/>
	
		<path clip-path="url(#SVGID_2_)" fill="none" stroke="#FFFFFF" stroke-width="1.5" stroke-linecap="square" stroke-linejoin="round" stroke-miterlimit="10" d="
		M47.492,41.085L35.571,47.94c-1.39,0.748-2.292,2.473-2.292,4.382v17.323"/>
	
		<path clip-path="url(#SVGID_2_)" fill="none" stroke="#FFFFFF" stroke-width="1.5" stroke-linecap="square" stroke-linejoin="round" stroke-miterlimit="10" d="
		M85.136,69.646V52.332c0-1.914-0.907-3.643-2.302-4.387l-11.772-6.859"/>
	
		<polygon clip-path="url(#SVGID_2_)" fill="none" stroke="#FFFFFF" stroke-width="1.5" stroke-linecap="round" stroke-linejoin="round" stroke-miterlimit="10" points="
		62.206,66.635 59.49,50.311 61.566,47.398 56.729,47.348 58.588,49.965 55.854,66.635 58.992,69.428 	"/>
	
		<line clip-path="url(#SVGID_2_)" fill="none" stroke="#FFFFFF" stroke-width="1.5" stroke-linecap="square" stroke-linejoin="round" stroke-miterlimit="10" x1="9.042" y1="25.999" x2="21.974" y2="25.999"/>
	
		<line clip-path="url(#SVGID_2_)" fill="none" stroke="#FFFFFF" stroke-width="1.5" stroke-linecap="square" stroke-linejoin="round" stroke-miterlimit="10" x1="9.042" y1="33.252" x2="21.974" y2="33.252"/>
	
		<path clip-path="url(#SVGID_2_)" fill="none" stroke="#FFFFFF" stroke-width="1.5" stroke-linecap="round" stroke-linejoin="round" stroke-miterlimit="10" d="
		M58.442,15.435c-0.168,1.832,2.134,4.054,2.134,4.054s-2.575,0.908-4.666-0.575c-2.307-1.635-2.966-3.912-2.966-3.912
		c-2.906,0.703-3.614,6.903-3.614,6.903s-0.598-4.48-2.655-2.582c0.178-1.245-2.978-7.416-0.907-11.625
		c2.135-4.34,6.312-3.296,6.312-3.296s1.579-2.987,5.729-3.525C64.22,0.047,70.093,3.36,72.282,8.74
		c1.209,2.97-0.246,7.2-1.027,10.591c-1.964-1.062-2.178,2.068-2.178,2.068s-0.505-6.4-2.036-5.847
		C67.041,15.552,63.09,17.486,58.442,15.435z"/>
	
		<polyline clip-path="url(#SVGID_2_)" fill="none" stroke="#FFFFFF" stroke-width="1.5" stroke-linecap="round" stroke-linejoin="round" stroke-miterlimit="10" points="
		59.314,45.454 49.685,37.28 47.492,41.367 	"/>
	
		<polyline clip-path="url(#SVGID_2_)" fill="none" stroke="#FFFFFF" stroke-width="1.5" stroke-linecap="round" stroke-linejoin="round" stroke-miterlimit="10" points="
		59.314,45.454 65.898,50.046 71.062,41.085 68.369,36.377 59.314,45.454 52.517,49.485 47.492,41.085 	"/>
	
		<polygon clip-path="url(#SVGID_2_)" fill="none" stroke="#FFFFFF" stroke-width="1.5" stroke-linecap="round" stroke-linejoin="round" stroke-miterlimit="10" points="
		30.227,42.229 0.75,42.229 0.75,17.022 30.227,17.022 30.227,25.461 35.745,30.19 30.227,35.055 	"/>
	
		<polygon clip-path="url(#SVGID_2_)" fill="none" stroke="#FFFFFF" stroke-width="1.5" stroke-linecap="round" stroke-linejoin="round" stroke-miterlimit="10" points="
		68.153,57.732 78.099,57.732 78.099,66.021 73.126,68.949 68.153,66.021 	"/>
	
		<line clip-path="url(#SVGID_2_)" fill="none" stroke="#FFFFFF" stroke-width="1.5" stroke-linecap="round" stroke-linejoin="round" stroke-miterlimit="10" x1="69.142" y1="61.798" x2="77.237" y2="61.798"/>
</g>
</svg>
