<?xml version="1.0" encoding="utf-8"?>
<!-- Generator: Adobe Illustrator 16.0.0, SVG Export Plug-In . SVG Version: 6.00 Build 0)  -->
<!DOCTYPE svg PUBLIC "-//W3C//DTD SVG 1.1//EN" "http://www.w3.org/Graphics/SVG/1.1/DTD/svg11.dtd">
<svg version="1.1" id="Слой_1" xmlns="http://www.w3.org/2000/svg" xmlns:xlink="http://www.w3.org/1999/xlink" x="0px" y="0px"
	 width="93.122px" height="68.053px" viewBox="0 0 93.122 68.053" enable-background="new 0 0 93.122 68.053" xml:space="preserve">
<g>
	<defs>
		<rect id="SVGID_1_" width="93.122" height="68.053"/>
	</defs>
	<clipPath id="SVGID_2_">
		<use xlink:href="#SVGID_1_"  overflow="visible"/>
	</clipPath>
	
		<path clip-path="url(#SVGID_2_)" fill="none" stroke="#FFFFFF" stroke-width="1.5" stroke-linecap="round" stroke-linejoin="round" stroke-miterlimit="10" d="
		M58.644,49.072c-0.001,2.252-1.57,4.127-3.672,4.62c0.191,0.277,0.345,0.526,0.408,0.696c0.876,2.352-2.843,5.063-2.035,6.521
		c0.807,1.458,6.787,2.812,9.459-1.592C66.472,53.27,61.089,50.13,58.644,49.072z"/>
	
		<path clip-path="url(#SVGID_2_)" fill="none" stroke="#FFFFFF" stroke-width="1.5" stroke-linecap="round" stroke-linejoin="round" stroke-miterlimit="10" d="
		M49.123,49.071c0-0.491,0.096-0.955,0.234-1.4c-0.392,0.121-0.747,0.213-0.959,0.22c-2.508,0.086-3.902-4.3-5.542-3.996
		c-1.639,0.305-4.816,5.55-1.486,9.477c4.115,4.852,8.314,2.015,10.413-0.049C50.213,52.544,49.123,50.942,49.123,49.071z"/>
	
		<path clip-path="url(#SVGID_2_)" fill="none" stroke="#FFFFFF" stroke-width="1.5" stroke-linecap="round" stroke-linejoin="round" stroke-miterlimit="10" d="
		M55.994,35.648c-7.018,1.082-5.928,7.265-5.166,9.802c0.828-0.699,1.884-1.137,3.052-1.137c1.068,0,2.043,0.365,2.837,0.959
		c0.089-0.329,0.183-0.609,0.272-0.769c1.239-2.184,5.706-1.077,6.305-2.632C63.893,40.315,61.083,34.863,55.994,35.648z"/>
	<path clip-path="url(#SVGID_2_)" fill="#FFFFFF" d="M55.965,49.044c0,1.16-0.94,2.102-2.101,2.102s-2.101-0.941-2.101-2.102
		s0.94-2.101,2.101-2.101S55.965,47.884,55.965,49.044"/>
	
		<path clip-path="url(#SVGID_2_)" fill="none" stroke="#FFFFFF" stroke-width="1.5" stroke-linecap="round" stroke-linejoin="round" stroke-miterlimit="10" d="
		M67.211,66.25h-14.38c-9.448,0-17.107-7.658-17.107-17.106s7.66-17.107,17.107-17.107h13.927"/>
	
		<rect x="67.211" y="17.85" clip-path="url(#SVGID_2_)" fill="none" stroke="#FFFFFF" stroke-width="1.5" stroke-linecap="round" stroke-linejoin="round" stroke-miterlimit="10" width="23.097" height="49.453"/>
	
		<path clip-path="url(#SVGID_2_)" fill="none" stroke="#FFFFFF" stroke-width="1.5" stroke-linecap="round" stroke-linejoin="round" stroke-miterlimit="10" d="
		M35.724,49.144c0-9.448,7.659-17.107,17.107-17.107h-24.11V66.25h24.11C43.383,66.25,35.724,58.591,35.724,49.144z"/>
	
		<path clip-path="url(#SVGID_2_)" fill="none" stroke="#FFFFFF" stroke-width="1.5" stroke-linecap="round" stroke-linejoin="round" stroke-miterlimit="10" d="
		M28.721,38.498H13.486C6.452,38.498,0.75,44.2,0.75,51.234v8.612h27.971"/>
	
		<path clip-path="url(#SVGID_2_)" fill="none" stroke="#FFFFFF" stroke-width="1.5" stroke-linecap="round" stroke-linejoin="round" stroke-miterlimit="10" d="
		M72.259,17.85V8.915c0-4.509,3.655-8.164,8.164-8.164h5.52"/>
	
		<rect x="0.75" y="59.846" clip-path="url(#SVGID_2_)" fill="none" stroke="#FFFFFF" stroke-width="1.5" stroke-linecap="round" stroke-linejoin="round" stroke-miterlimit="10" width="18.114" height="7.457"/>
	
		<line clip-path="url(#SVGID_2_)" fill="none" stroke="#FFFFFF" stroke-width="1.5" stroke-linecap="round" stroke-linejoin="round" stroke-miterlimit="10" x1="0.75" y1="54.816" x2="14.735" y2="54.816"/>
	
		<line clip-path="url(#SVGID_2_)" fill="none" stroke="#FFFFFF" stroke-width="1.5" stroke-linecap="round" stroke-linejoin="round" stroke-miterlimit="10" x1="22.545" y1="38.498" x2="22.545" y2="59.846"/>
	
		<polyline clip-path="url(#SVGID_2_)" fill="none" stroke="#FFFFFF" stroke-width="1.5" stroke-linecap="round" stroke-linejoin="round" stroke-miterlimit="10" points="
		92.372,14.125 85.943,14.125 85.943,17.85 	"/>
	
		<line clip-path="url(#SVGID_2_)" fill="none" stroke="#FFFFFF" stroke-width="1.5" stroke-linecap="round" stroke-linejoin="round" stroke-miterlimit="10" x1="92.372" y1="0.75" x2="85.943" y2="0.75"/>
	
		<line clip-path="url(#SVGID_2_)" fill="none" stroke="#FFFFFF" stroke-width="1.5" stroke-linecap="round" stroke-linejoin="round" stroke-miterlimit="10" x1="88.646" y1="0.75" x2="88.646" y2="10.149"/>
	
		<line clip-path="url(#SVGID_2_)" fill="none" stroke="#FFFFFF" stroke-width="1.5" stroke-linecap="round" stroke-linejoin="round" stroke-miterlimit="10" x1="92.372" y1="0.75" x2="92.372" y2="13.489"/>
	
		<polyline clip-path="url(#SVGID_2_)" fill="none" stroke="#FFFFFF" stroke-width="1.5" stroke-linecap="round" stroke-linejoin="round" stroke-miterlimit="10" points="
		72.259,23.42 72.259,61.179 77.137,59.218 	"/>
	
		<polyline clip-path="url(#SVGID_2_)" fill="none" stroke="#FFFFFF" stroke-width="1.5" stroke-linecap="round" stroke-linejoin="round" stroke-miterlimit="10" points="
		81.064,23.42 81.064,61.179 85.943,59.218 	"/>
</g>
</svg>
