<?xml version="1.0" encoding="utf-8"?>
<!-- Generator: Adobe Illustrator 16.0.0, SVG Export Plug-In . SVG Version: 6.00 Build 0)  -->
<!DOCTYPE svg PUBLIC "-//W3C//DTD SVG 1.1//EN" "http://www.w3.org/Graphics/SVG/1.1/DTD/svg11.dtd">
<svg version="1.1" id="Слой_1" xmlns="http://www.w3.org/2000/svg" xmlns:xlink="http://www.w3.org/1999/xlink" x="0px" y="0px"
	 width="72.243px" height="71.345px" viewBox="0 0 72.243 71.345" enable-background="new 0 0 72.243 71.345" xml:space="preserve">
<g>
	<defs>
		<rect id="SVGID_1_" y="0" width="72.243" height="71.345"/>
	</defs>
	<clipPath id="SVGID_2_">
		<use xlink:href="#SVGID_1_"  overflow="visible"/>
	</clipPath>
	<path clip-path="url(#SVGID_2_)" fill="#FFFFFF" d="M20.454,17h1.654c1.779,0,2.881-0.427,3.735-1.281
		c0.711-0.693,1.103-1.654,1.103-2.774c0-1.423-0.552-2.33-1.495-2.97c-0.8-0.551-1.778-0.783-3.29-0.783h-3.361v6.403h-1.173v1.423
		h1.173v1.173h-1.173v1.405h1.173v2.046h1.654v-2.046h5.976v-1.405h-5.976V17z M20.454,10.616h1.636
		c1.049,0,1.672,0.143,2.223,0.498c0.623,0.409,0.907,1.014,0.907,1.885c0,0.73-0.195,1.316-0.711,1.832
		c-0.551,0.516-1.316,0.765-2.668,0.765h-1.387V10.616z"/>
	
		<path clip-path="url(#SVGID_2_)" fill="none" stroke="#FFFFFF" stroke-width="1.5" stroke-linecap="round" stroke-linejoin="round" stroke-miterlimit="10" d="
		M34.354,24.181c1.75-2.43,2.781-5.413,2.781-8.637c0-8.17-6.623-14.794-14.793-14.794c-8.17,0-14.794,6.624-14.794,14.794
		c0,3.311,1.088,6.368,2.926,8.833"/>
	
		<path clip-path="url(#SVGID_2_)" fill="none" stroke="#FFFFFF" stroke-width="1.5" stroke-linecap="round" stroke-linejoin="round" stroke-miterlimit="10" d="
		M39.689,24.181c1.75-2.43,2.781-5.413,2.781-8.637c0-8.17-6.623-14.794-14.794-14.794h-5.335"/>
	
		<path clip-path="url(#SVGID_2_)" fill="none" stroke="#FFFFFF" stroke-width="1.5" stroke-linecap="round" stroke-linejoin="round" stroke-miterlimit="10" d="
		M67.957,64.491c0,3.371-2.733,6.104-6.104,6.104h-55c-3.371,0-6.104-2.732-6.104-6.104V30.912c0-3.371,2.733-6.104,6.104-6.104h55
		c3.37,0,6.104,2.733,6.104,6.104v10.858"/>
	
		<path clip-path="url(#SVGID_2_)" fill="none" stroke="#FFFFFF" stroke-width="1.5" stroke-linecap="round" stroke-linejoin="round" stroke-miterlimit="10" d="
		M71.493,59.896H45.454c-2.809,0-5.085-2.276-5.085-5.085v-4.208c0-2.809,2.276-5.084,5.085-5.084h26.039V59.896z"/>
	
		<circle clip-path="url(#SVGID_2_)" fill="none" stroke="#FFFFFF" stroke-width="1.5" stroke-linecap="round" stroke-linejoin="round" stroke-miterlimit="10" cx="48.435" cy="52.707" r="3.113"/>
	
		<line clip-path="url(#SVGID_2_)" fill="none" stroke="#FFFFFF" stroke-width="1.5" stroke-linecap="square" stroke-linejoin="round" stroke-miterlimit="10" x1="6.21" y1="32.083" x2="62.496" y2="32.083"/>
	
		<line clip-path="url(#SVGID_2_)" fill="none" stroke="#FFFFFF" stroke-width="1.5" stroke-linecap="square" stroke-linejoin="round" stroke-miterlimit="10" x1="0.75" y1="37.817" x2="34.354" y2="37.817"/>
	
		<line clip-path="url(#SVGID_2_)" fill="none" stroke="#FFFFFF" stroke-width="1.5" stroke-linecap="square" stroke-linejoin="round" stroke-miterlimit="10" x1="6.21" y1="65.308" x2="62.496" y2="65.308"/>
	
		<line clip-path="url(#SVGID_2_)" fill="none" stroke="#FFFFFF" stroke-width="1.5" stroke-linecap="round" stroke-linejoin="round" stroke-miterlimit="10" x1="34.754" y1="7.032" x2="36.504" y2="7.032"/>
	
		<line clip-path="url(#SVGID_2_)" fill="none" stroke="#FFFFFF" stroke-width="1.5" stroke-linecap="round" stroke-linejoin="round" stroke-miterlimit="10" x1="36.26" y1="9.747" x2="38.01" y2="9.747"/>
	
		<line clip-path="url(#SVGID_2_)" fill="none" stroke="#FFFFFF" stroke-width="1.5" stroke-linecap="round" stroke-linejoin="round" stroke-miterlimit="10" x1="37.106" y1="12.563" x2="38.856" y2="12.563"/>
	
		<line clip-path="url(#SVGID_2_)" fill="none" stroke="#FFFFFF" stroke-width="1.5" stroke-linecap="round" stroke-linejoin="round" stroke-miterlimit="10" x1="37.505" y1="15.078" x2="39.255" y2="15.078"/>
	
		<line clip-path="url(#SVGID_2_)" fill="none" stroke="#FFFFFF" stroke-width="1.5" stroke-linecap="round" stroke-linejoin="round" stroke-miterlimit="10" x1="37.106" y1="17.806" x2="38.856" y2="17.806"/>
	
		<line clip-path="url(#SVGID_2_)" fill="none" stroke="#FFFFFF" stroke-width="1.5" stroke-linecap="round" stroke-linejoin="round" stroke-miterlimit="10" x1="36.504" y1="20.472" x2="38.254" y2="20.472"/>
	
		<line clip-path="url(#SVGID_2_)" fill="none" stroke="#FFFFFF" stroke-width="1.5" stroke-linecap="round" stroke-linejoin="round" stroke-miterlimit="10" x1="35.187" y1="22.949" x2="36.937" y2="22.949"/>
</g>
</svg>
