<?xml version="1.0" encoding="utf-8"?>
<!-- Generator: Adobe Illustrator 16.0.0, SVG Export Plug-In . SVG Version: 6.00 Build 0)  -->
<!DOCTYPE svg PUBLIC "-//W3C//DTD SVG 1.1//EN" "http://www.w3.org/Graphics/SVG/1.1/DTD/svg11.dtd">
<svg version="1.1" id="Слой_1" xmlns="http://www.w3.org/2000/svg" xmlns:xlink="http://www.w3.org/1999/xlink" x="0px" y="0px"
	 width="75.909px" height="56.664px" viewBox="0 0 75.909 56.664" enable-background="new 0 0 75.909 56.664" xml:space="preserve">
<g>
	<defs>
		<rect id="SVGID_1_" y="0" width="75.909" height="56.663"/>
	</defs>
	<clipPath id="SVGID_2_">
		<use xlink:href="#SVGID_1_"  overflow="visible"/>
	</clipPath>
	
		<path clip-path="url(#SVGID_2_)" fill="none" stroke="#FFFFFF" stroke-width="1.5" stroke-linecap="round" stroke-miterlimit="10" d="
		M20.813,55.914h-4.42c-1.025,0-1.857-0.832-1.857-1.857V2.607c0-1.026,0.832-1.857,1.857-1.857h4.42
		c1.026,0,1.857,0.831,1.857,1.857v51.449C22.671,55.082,21.84,55.914,20.813,55.914z"/>
	
		<path clip-path="url(#SVGID_2_)" fill="none" stroke="#FFFFFF" stroke-width="1.5" stroke-linecap="round" stroke-miterlimit="10" d="
		M34.936,55.914h-4.42c-1.025,0-1.857-0.832-1.857-1.857V2.607c0-1.026,0.832-1.857,1.857-1.857h4.42
		c1.026,0,1.857,0.831,1.857,1.857v51.449C36.793,55.082,35.962,55.914,34.936,55.914z"/>
	
		<path clip-path="url(#SVGID_2_)" fill="none" stroke="#FFFFFF" stroke-width="1.5" stroke-linecap="round" stroke-miterlimit="10" d="
		M49.058,55.914h-4.42c-1.024,0-1.856-0.832-1.856-1.857V2.607c0-1.026,0.832-1.857,1.856-1.857h4.42
		c1.026,0,1.857,0.831,1.857,1.857v51.449C50.915,55.082,50.084,55.914,49.058,55.914z"/>
	
		<path clip-path="url(#SVGID_2_)" fill="none" stroke="#FFFFFF" stroke-width="1.5" stroke-linecap="round" stroke-miterlimit="10" d="
		M63.563,55.914h-4.42c-1.024,0-1.856-0.832-1.856-1.857V2.607c0-1.026,0.832-1.857,1.856-1.857h4.42
		c1.026,0,1.857,0.831,1.857,1.857v51.449C65.421,55.082,64.59,55.914,63.563,55.914z"/>
	
		<line clip-path="url(#SVGID_2_)" fill="none" stroke="#FFFFFF" stroke-width="1.5" stroke-linecap="round" stroke-miterlimit="10" x1="22.671" y1="8.606" x2="28.659" y2="8.606"/>
	
		<line clip-path="url(#SVGID_2_)" fill="none" stroke="#FFFFFF" stroke-width="1.5" stroke-linecap="round" stroke-miterlimit="10" x1="22.671" y1="17.853" x2="28.659" y2="17.853"/>
	
		<line clip-path="url(#SVGID_2_)" fill="none" stroke="#FFFFFF" stroke-width="1.5" stroke-linecap="round" stroke-miterlimit="10" x1="22.671" y1="38.811" x2="28.659" y2="38.811"/>
	
		<line clip-path="url(#SVGID_2_)" fill="none" stroke="#FFFFFF" stroke-width="1.5" stroke-linecap="round" stroke-miterlimit="10" x1="22.671" y1="48.058" x2="28.659" y2="48.058"/>
	
		<line clip-path="url(#SVGID_2_)" fill="none" stroke="#FFFFFF" stroke-width="1.5" stroke-linecap="round" stroke-miterlimit="10" x1="36.793" y1="8.606" x2="42.781" y2="8.606"/>
	
		<line clip-path="url(#SVGID_2_)" fill="none" stroke="#FFFFFF" stroke-width="1.5" stroke-linecap="round" stroke-miterlimit="10" x1="36.793" y1="17.853" x2="42.781" y2="17.853"/>
	
		<line clip-path="url(#SVGID_2_)" fill="none" stroke="#FFFFFF" stroke-width="1.5" stroke-linecap="round" stroke-miterlimit="10" x1="36.793" y1="38.811" x2="42.781" y2="38.811"/>
	
		<line clip-path="url(#SVGID_2_)" fill="none" stroke="#FFFFFF" stroke-width="1.5" stroke-linecap="round" stroke-miterlimit="10" x1="36.793" y1="48.058" x2="42.781" y2="48.058"/>
	
		<line clip-path="url(#SVGID_2_)" fill="none" stroke="#FFFFFF" stroke-width="1.5" stroke-linecap="round" stroke-miterlimit="10" x1="50.915" y1="8.606" x2="55.903" y2="8.606"/>
	
		<line clip-path="url(#SVGID_2_)" fill="none" stroke="#FFFFFF" stroke-width="1.5" stroke-linecap="round" stroke-miterlimit="10" x1="50.915" y1="17.853" x2="55.903" y2="17.853"/>
	
		<line clip-path="url(#SVGID_2_)" fill="none" stroke="#FFFFFF" stroke-width="1.5" stroke-linecap="round" stroke-miterlimit="10" x1="50.915" y1="38.811" x2="55.903" y2="38.811"/>
	
		<line clip-path="url(#SVGID_2_)" fill="none" stroke="#FFFFFF" stroke-width="1.5" stroke-linecap="round" stroke-miterlimit="10" x1="50.915" y1="48.058" x2="55.903" y2="48.058"/>
	
		<line clip-path="url(#SVGID_2_)" fill="none" stroke="#FFFFFF" stroke-width="1.5" stroke-linecap="round" stroke-miterlimit="10" x1="65.421" y1="8.606" x2="68.409" y2="8.606"/>
	
		<line clip-path="url(#SVGID_2_)" fill="none" stroke="#FFFFFF" stroke-width="1.5" stroke-linecap="round" stroke-miterlimit="10" x1="65.421" y1="17.853" x2="68.409" y2="17.853"/>
	
		<line clip-path="url(#SVGID_2_)" fill="none" stroke="#FFFFFF" stroke-width="1.5" stroke-linecap="round" stroke-miterlimit="10" x1="65.421" y1="38.811" x2="68.409" y2="38.811"/>
	
		<line clip-path="url(#SVGID_2_)" fill="none" stroke="#FFFFFF" stroke-width="1.5" stroke-linecap="round" stroke-miterlimit="10" x1="65.421" y1="48.058" x2="68.409" y2="48.058"/>
	
		<line clip-path="url(#SVGID_2_)" fill="none" stroke="#FFFFFF" stroke-width="1.5" stroke-linecap="round" stroke-miterlimit="10" x1="68.409" y1="8.606" x2="68.409" y2="17.853"/>
	
		<line clip-path="url(#SVGID_2_)" fill="none" stroke="#FFFFFF" stroke-width="1.5" stroke-linecap="round" stroke-miterlimit="10" x1="68.409" y1="38.811" x2="68.409" y2="48.058"/>
	
		<path clip-path="url(#SVGID_2_)" fill="none" stroke="#FFFFFF" stroke-width="1.5" stroke-linecap="round" stroke-miterlimit="10" d="
		M68.825,11.688h2.869c1.914,0,3.465,1.674,3.465,3.74v25.808c0,2.065-1.551,3.74-3.465,3.74h-2.869"/>
	
		<path clip-path="url(#SVGID_2_)" fill="none" stroke="#FFFFFF" stroke-width="1.5" stroke-linecap="round" stroke-miterlimit="10" d="
		M68.908,14.77h1.623c0.808,0,1.461,0.669,1.461,1.493v24.338c0,0.825-0.653,1.493-1.461,1.493h-2.123"/>
	
		<rect x="11.002" y="11.688" clip-path="url(#SVGID_2_)" fill="none" stroke="#FFFFFF" stroke-width="1.5" stroke-linecap="round" stroke-miterlimit="10" width="3.535" height="3.082"/>
	
		<polyline clip-path="url(#SVGID_2_)" fill="none" stroke="#FFFFFF" stroke-width="1.5" stroke-linecap="square" stroke-miterlimit="10" points="
		0.75,14.77 4.279,14.77 4.279,11.688 0.75,11.688 	"/>
	
		<rect x="4.28" y="9.977" clip-path="url(#SVGID_2_)" fill="none" stroke="#FFFFFF" stroke-width="1.5" stroke-linecap="round" stroke-miterlimit="10" width="6.722" height="6.722"/>
	
		<polygon clip-path="url(#SVGID_2_)" fill="none" stroke="#FFFFFF" stroke-width="1.5" stroke-linecap="round" stroke-miterlimit="10" points="
		9.741,6.434 5.203,6.434 6.334,1.909 8.61,1.909 	"/>
	<rect x="6.8" y="7.204" clip-path="url(#SVGID_2_)" fill="#FFFFFF" width="1.513" height="2.773"/>
	
		<line clip-path="url(#SVGID_2_)" fill="none" stroke="#FFFFFF" stroke-width="1.5" stroke-linecap="round" stroke-miterlimit="10" x1="5.398" y1="15.914" x2="10.557" y2="10.754"/>
	
		<polyline clip-path="url(#SVGID_2_)" fill="none" stroke="#FFFFFF" stroke-width="1.5" stroke-linecap="square" stroke-miterlimit="10" points="
		0.75,44.99 14.537,44.99 14.537,41.908 0.75,41.908 	"/>
	
		<line clip-path="url(#SVGID_2_)" fill="none" stroke="#FFFFFF" stroke-width="1.5" stroke-linecap="round" stroke-miterlimit="10" x1="18.604" y1="6.434" x2="18.604" y2="50.152"/>
	
		<line clip-path="url(#SVGID_2_)" fill="none" stroke="#FFFFFF" stroke-width="1.5" stroke-linecap="round" stroke-miterlimit="10" x1="32.726" y1="6.434" x2="32.726" y2="50.152"/>
	
		<line clip-path="url(#SVGID_2_)" fill="none" stroke="#FFFFFF" stroke-width="1.5" stroke-linecap="round" stroke-miterlimit="10" x1="46.849" y1="6.361" x2="46.849" y2="50.08"/>
	
		<line clip-path="url(#SVGID_2_)" fill="none" stroke="#FFFFFF" stroke-width="1.5" stroke-linecap="round" stroke-miterlimit="10" x1="61.354" y1="6.434" x2="61.354" y2="50.152"/>
</g>
</svg>
